<svg xmlns="http://www.w3.org/2000/svg" xmlns:xlink="http://www.w3.org/1999/xlink" width="268" height="101" viewBox="0 0 268 101">
  <defs>
    <clipPath id="clip-path">
      <rect id="Rectangle_3196" data-name="Rectangle 3196" width="268" height="101" transform="translate(66.737 62)" fill="#fff" stroke="#707070" stroke-width="1"/>
    </clipPath>
  </defs>
  <g id="data-viz-card-design" transform="translate(-66.737 -62)" opacity="0.246" clip-path="url(#clip-path)">
    <g id="roots_black" transform="translate(-0.3 29.8)">
      <path id="Path_37162" data-name="Path 37162" d="M198.34,15.849a10.867,10.867,0,0,0,.064-1.407c-.128-1.79-.256-3.581-.512-5.307a63.121,63.121,0,0,0-2.174-9.271H193.8a58.216,58.216,0,0,1,2.813,14.194,1.816,1.816,0,0,0,1.726,1.79ZM434.659-.2h-2.43c-.576.7-1.215,1.343-1.79,2.046a84.47,84.47,0,0,1-28.581,20.269,7.814,7.814,0,0,0-1.279.639c1.726.448,3.133.639,4.6-.128A85.166,85.166,0,0,0,434.659-.2Zm10.294,48.146a4.533,4.533,0,0,0-3.005-3.389c-2.174-.831-4.22-1.854-6.33-2.749a127.24,127.24,0,0,0-34.527-9.271,8.952,8.952,0,0,0-1.343,0,10.032,10.032,0,0,0,4.732,2.366,92.442,92.442,0,0,1,9.335,1.79,148.118,148.118,0,0,1,29.54,10.614,7.538,7.538,0,0,1,1.6.639Z" transform="translate(-69.778 -0.036)" fill="#fff"/>
      <path id="Path_37163" data-name="Path 37163" d="M550.836,55.317a143.927,143.927,0,0,0-27.174-8.951A94.938,94.938,0,0,0,503.33,44h-2.366a.48.48,0,0,1-.064.32c1.79.448,3.389,1.471,5.371,1.535a85.979,85.979,0,0,1,12.788,1.407,138.852,138.852,0,0,1,28.964,8.76c1.535.639,3.069,1.343,4.859,2.046C552.435,56.084,552.307,55.957,550.836,55.317Z" transform="translate(-180.521 -15.975)" fill="#fff"/>
      <path id="Path_37164" data-name="Path 37164" d="M429.194,39.356c-4.348-1.535-8.632-3.261-12.98-4.6a108.136,108.136,0,0,0-32.225-5.435,78.684,78.684,0,0,0-16.88,1.6c-.7.128-1.471.384-2.366.639,2.494.064,4.732.192,6.969.256.639,0,1.343-.064,1.982-.128,1.471-.128,2.941-.384,4.412-.448a98.35,98.35,0,0,1,21.675,1.343,140.969,140.969,0,0,1,29.6,8.888l1.726.639C430.985,40.507,430.409,39.74,429.194,39.356Zm-259.4-22.762a77.686,77.686,0,0,0,15.537,10.614c8.184,4.156,16.816,6.65,26.151,5.818a39.374,39.374,0,0,0,14.9-4.412c.32-.128.512-.448.831-.7a9.515,9.515,0,0,0-1.087-1.151c-.512.256-.831.384-1.215.575a36.88,36.88,0,0,1-16.816,4.092,43.811,43.811,0,0,1-14.578-2.621,69.272,69.272,0,0,1-19.629-11.125c-1.471-1.151-2.813-2.3-4.348-3.581-.9,1.535-.9,1.535.256,2.494Z" transform="translate(-60.797 -5.193)" fill="#fff"/>
      <path id="Path_37165" data-name="Path 37165" d="M184.82-.2a57.642,57.642,0,0,1,2.749,11.573,2.237,2.237,0,0,0,1.982,2.046,10.869,10.869,0,0,0-.064-1.535A64.9,64.9,0,0,0,186.738-.2ZM410.909,53.317a37.392,37.392,0,0,0-7.673-12.084c-6.778-7.225-15.217-11.253-24.872-12.788a34.412,34.412,0,0,0-12.532.064,45.487,45.487,0,0,0-10.358,3.708c-8.376,3.964-16.049,9.143-23.53,14.578-1.215.831-2.366,1.726-3.581,2.622.064.128.064.256.128.32a4.476,4.476,0,0,0,3.581-.7c3.645-2.558,7.225-5.179,10.934-7.609A94.861,94.861,0,0,1,360.4,32.089a30.985,30.985,0,0,1,12.724-2.3,43.351,43.351,0,0,1,11.765,2.11A39.546,39.546,0,0,1,402.4,43.087a35.805,35.805,0,0,1,6.65,10.614c.575,1.343.767,1.407,2.174.9,0-.128.064-.192,0-.32a4.226,4.226,0,0,0-.32-.959ZM183.094,8.432c.256,1.215,1.023,1.726,2.3,2.238A66.156,66.156,0,0,0,182.518-.2H180.6a66.669,66.669,0,0,1,2.494,8.632Z" transform="translate(-65.018 -0.036)" fill="#fff"/>
      <path id="Path_37166" data-name="Path 37166" d="M171.609,9.713a74.47,74.47,0,0,0,18.8,12.6,44.694,44.694,0,0,0,17.9,4.348,34.732,34.732,0,0,0,15.985-3.708,9.757,9.757,0,0,0,1.023-.7,8.554,8.554,0,0,0-.384-.767,4.3,4.3,0,0,0-.448-.7c-1.087.512-1.918.9-2.685,1.215a31.97,31.97,0,0,1-14.194,2.749,41.049,41.049,0,0,1-14.578-3.325,71.388,71.388,0,0,1-20.461-13.3c-.448-.384-.9-.767-1.343-1.215C170.522,8.562,170.522,8.754,171.609,9.713ZM374.3,88.167c1.6.128,1.79,0,1.662-1.407-.256-2.749-.512-5.5-.831-8.248a78.408,78.408,0,0,0-5.818-22.187,54.418,54.418,0,0,0-7.225-12.212c-.831-1.087-.959-1.087-2.3-.128a6.637,6.637,0,0,0,.767,1.087,55.9,55.9,0,0,1,8.632,15.793,85.909,85.909,0,0,1,4.732,23.657C374.04,85.8,374.168,86.952,374.3,88.167ZM328,83.883A36.413,36.413,0,0,1,342.2,76.913a52.6,52.6,0,0,1,7.1-.959,11.068,11.068,0,0,0,8.12-4.6,29.2,29.2,0,0,0,4.54-10.166,3.727,3.727,0,0,0-1.087-3.708c-.128.448-.192.9-.32,1.279a32.328,32.328,0,0,1-3.581,9.911,10.511,10.511,0,0,1-9.271,5.563c-7.928.32-14.706,3.517-20.972,8.184-1.023.767-1.023.959-.32,2.494a11.586,11.586,0,0,0,1.6-1.023ZM420.012,61.7c-.7-.256-1.343-.448-2.046-.639a55.355,55.355,0,0,0-19.438-1.407,45.564,45.564,0,0,1-9.335-.128A29.5,29.5,0,0,1,374.679,53.7c-.256-.192-.512-.32-.9-.575a6.535,6.535,0,0,0,3.645,4.6,37.041,37.041,0,0,0,19.885,3.836,100.388,100.388,0,0,1,10.742-.256,44.22,44.22,0,0,1,11.125,1.982c.512.192,1.023.32,1.662.512C421.227,62.207,421.227,62.143,420.012,61.7ZM325.127,90.4a13.315,13.315,0,0,0,0-1.6c-.192-1.662-.32-3.389-.639-4.987A30.407,30.407,0,0,0,307.927,61.5a49.643,49.643,0,0,0-19.31-4.987c-3.325-.256-6.65-.384-9.975-.575a122.519,122.519,0,0,1-18.67-2.558c-.384-.064-.767-.128-1.279-.192-.128.575-.192,1.023-.384,1.662,1.662.384,3.2.7,4.731,1.023,8.248,1.6,16.624,1.982,25,2.43a49.1,49.1,0,0,1,16.816,3.772c7.1,3.133,12.532,7.992,15.729,15.218a34.705,34.705,0,0,1,2.685,11.573c.064,1.343.064,1.343,1.854,1.535Z" transform="translate(-61.461 -2.596)" fill="#fff"/>
      <path id="Path_37167" data-name="Path 37167" d="M377.206,108.612a38.773,38.773,0,0,1,13.363-7.673A43.35,43.35,0,0,1,399.2,99.6a14.3,14.3,0,0,0,8.376-3.836,23.728,23.728,0,0,0,5.563-8.376c.639-1.407.256-2.558-.511-3.9-.256.7-.448,1.215-.639,1.726a23.255,23.255,0,0,1-4.156,7.609,12.961,12.961,0,0,1-9.079,4.923c-1.343.128-2.749.192-4.092.384-6.905.959-12.724,4.22-18.095,8.568a2.292,2.292,0,0,0-.639,2.941c.511-.384.9-.7,1.279-1.023Zm-9.015-.7c.128,1.279.192,1.343,1.726,1.279a6.952,6.952,0,0,0,.064-1.151,30.525,30.525,0,0,0-3.389-12.021c-3.389-6.2-8.632-10.23-15.154-12.788-6.138-2.366-12.6-3.005-19.118-3.261a140.667,140.667,0,0,1-20.077-2.11c-1.535-.256-3.005-.639-4.476-.9-.9-.192-1.535.448-1.215,1.151a1.573,1.573,0,0,0,1.087.639c4.028.7,8.056,1.6,12.085,2.046,5.882.639,11.829.831,17.711,1.279A44.5,44.5,0,0,1,352.4,85.594c6.586,2.941,11.445,7.609,13.939,14.45A29.273,29.273,0,0,1,368.19,107.908ZM429.7,83.292a38.057,38.057,0,0,0,12.788,2.11c3.453,0,6.841-.256,10.294-.384a39.263,39.263,0,0,1,16.241,2.621c.32.128.639.128.959.256.192-1.726.192-1.726-1.215-2.3a16.2,16.2,0,0,0-2.3-.767c-6.33-1.918-12.788-1.854-19.31-1.407-6.969.512-13.683-.256-20.077-3.261-.384-.192-.767-.32-1.343-.575.128,1.471.575,2.366,1.854,2.813a16.1,16.1,0,0,0,2.11.9Zm-2.494,24.425c.639-.064,1.087-.128,1.662-.192v-1.343c-.128-1.854-.32-3.772-.512-5.627A88.874,88.874,0,0,0,423.434,78.3a60.461,60.461,0,0,0-8.248-15.537c-.9-1.151-1.023-1.215-2.494-.384.32.448.575.9.959,1.343a59.93,59.93,0,0,1,6.522,11.253,88.968,88.968,0,0,1,6.714,28.964c.064,1.279.192,2.43.32,3.772Z" transform="translate(-110.407 -22.402)" fill="#fff"/>
      <path id="Path_37168" data-name="Path 37168" d="M332.082,93.53c1.535.128,1.726,0,1.662-1.279,0-.9-.192-1.726-.192-2.622a87.051,87.051,0,0,0-3.517-19.885,54.448,54.448,0,0,0-9.847-19.118c-.32-.384-.639-.767-1.087-1.215-.512.256-.959.448-1.407.7.128.32.128.448.192.512.128.192.256.32.384.512A51.216,51.216,0,0,1,327.734,68.4a84.4,84.4,0,0,1,4.028,21.036c0,1.407.192,2.749.32,4.092Zm-202.687-72c.448.384.767.767,1.151,1.087A78.723,78.723,0,0,0,149.983,34.77c7.609,3.261,15.537,5.051,23.913,4.348a41.656,41.656,0,0,0,17.839-5.563,2.75,2.75,0,0,0,.639-.575c-1.087-1.343-1.023-1.279-2.558-.512a41.126,41.126,0,0,1-24.936,4.6,54.9,54.9,0,0,1-16.944-5.243A80.71,80.71,0,0,1,131.7,21.215c-.448-.384-.959-.7-1.535-1.215a5.755,5.755,0,0,1-.767,1.535ZM304.524,76.842c.831,1.087.9,1.087,2.494.512-.32-.512-.575-.959-.9-1.407a21.937,21.937,0,0,0-11.957-8.312c-5.882-1.662-11.765-.959-17.583.448-.128,0-.256.192-.384.32.575.959,1.215,1.471,2.366,1.151.767-.192,1.471-.32,2.238-.448a29.233,29.233,0,0,1,9.143-.384,20.307,20.307,0,0,1,14.578,8.12Zm-201.152,86.7c-1.151-.9-2.174-1.854-3.325-2.685a30.052,30.052,0,0,1-5.882-5.5c-.256-.32-.575-.639-.9-1.023-.959,1.471-.959,1.6-.064,2.685a31.426,31.426,0,0,0,6.074,5.563c1.471,1.087,2.813,2.366,4.156,3.581a5.294,5.294,0,0,1,.7.959,2.641,2.641,0,0,0-.767-3.581Zm8.248-57.289c.32,3.517.512,7.033.9,10.55,1.535,14.194,8.951,24.233,21.739,30.435.512.256,1.023.384,1.662.639.192-.639.32-1.087.512-1.6-.767-.384-1.407-.7-2.046-.959a36.1,36.1,0,0,1-9.591-6.586c-6.969-6.778-10.294-15.154-10.678-24.744a67.418,67.418,0,0,0-1.279-11.381c-.32-1.6-.767-3.133-1.151-4.668a12.636,12.636,0,0,0-.384,6.522,8.063,8.063,0,0,1,.32,1.79Zm-7.289,52.814a12.48,12.48,0,0,0-1.471-1.087,25.1,25.1,0,0,1-7.161-7.289,10.077,10.077,0,0,0-.767-.959c-.959,1.407-.959,1.6-.384,2.494,2.558,3.964,6.33,6.65,10.166,9.335.639-1.407.575-1.662-.384-2.494Zm-6.266,28.389H102.8c.512-.192.959-.384,1.471-.575,1.023-.448,1.087-.575.512-2.11-2.3.831-4.54,1.662-6.714,2.685Zm2.046-60.806a16.349,16.349,0,0,0-.7,1.535c-3.645,9.527-7.289,18.99-10.87,28.517-1.471,3.836-2.749,7.737-4.028,11.573-.448,1.279-.32,1.407,1.151,2.11l.575-1.535c2.877-7.928,5.691-15.857,8.568-23.785,1.982-5.243,4.092-10.486,6.074-15.729.575-1.407.575-1.6-.767-2.685Zm3.133,42.711a19.182,19.182,0,0,0-5.051-4.859,35.806,35.806,0,0,1-5.755-4.987,11.129,11.129,0,0,0-.9-.767c-.831,1.662-.9,1.726.256,2.749,1.79,1.6,3.581,3.133,5.5,4.6a17.909,17.909,0,0,1,6.458,8.312c.064.256.192.448.256.7a.575.575,0,0,0,.32-.064c0-.767-.064-1.535,0-2.3a4.712,4.712,0,0,0-1.087-3.389ZM67.885,136.369c.192.448.256.831.384,1.087a45.607,45.607,0,0,1,4.156,24.169c-.128,1.279,0,1.407,1.662,1.726,1.087-9.655-.128-18.862-4.668-27.686C68.844,135.922,68.4,136.177,67.885,136.369ZM65.9,137.776c-1.407.831-1.471.831-.9,2.046A35.486,35.486,0,0,1,68.4,152.29c.192,2.558.128,5.179.192,7.8,0,1.215,0,1.215,1.6,1.662a10.678,10.678,0,0,0,.256-1.854c.064-1.662.064-3.261,0-4.923a41.439,41.439,0,0,0-3.9-16.113,6.073,6.073,0,0,0-.639-1.087Z" transform="translate(-23.211 -7.32)" fill="#fff"/>
      <path id="Path_37169" data-name="Path 37169" d="M77.6,137.43c-.192-.384-.448-.7-.639-1.023-.384.064-.639.128-.959.192-.192.064-.32.192-.7.384,4.156,8.12,5.563,16.752,5.243,25.767,1.023-2.174,1.918-4.284,1.726-6.778A50.512,50.512,0,0,0,77.6,137.43Zm23.338-12.084a15.62,15.62,0,0,0-.639,1.535c-3.389,8.824-6.841,17.583-10.23,26.471-1.854,4.8-3.453,9.719-5.179,14.578-.448,1.343-.384,1.407,1.215,1.982.192-.575.384-1.023.575-1.535,3.133-8.632,6.266-17.327,9.463-25.9,1.854-4.987,3.9-9.911,5.818-14.834C102.474,126.3,102.41,126.112,100.94,125.345Zm25.192-92.967a3.568,3.568,0,0,0-.32.512,1.726,1.726,0,0,0,.448.512,140.365,140.365,0,0,1,13.427,12.724,6.853,6.853,0,0,0,3.772,1.726,119.508,119.508,0,0,0-16.5-16.177c-.384.32-.639.512-.831.7Zm-9.463,8.568c-.256.32-.575.7-.9,1.087.192.256.256.384.384.448a5.851,5.851,0,0,0,1.087.575,36.675,36.675,0,0,0,10.87,3.517,58.722,58.722,0,0,1,18.031,6.266c.32.192.639.256,1.087.512-.128-1.982-.128-2.11-1.6-2.813a56.682,56.682,0,0,0-14.706-5.179c-4.731-.9-9.4-1.982-13.683-4.284a4.073,4.073,0,0,0-.575-.128ZM131.95,25.6c-.32.512-.639.9-.831,1.215,4.668,4.412,9.207,8.632,13.875,12.98a5.16,5.16,0,0,0-1.535-4.028c-3.453-3.069-6.841-6.266-10.294-9.4-.32-.192-.767-.448-1.215-.767Zm-2.43,3.2c-.32.448-.639.767-1.087,1.343a167.05,167.05,0,0,1,17.775,17.136,4.859,4.859,0,0,0-1.151-3.836,148.141,148.141,0,0,0-14.45-13.875,3.638,3.638,0,0,0-1.087-.767ZM114.175,44.206c-.192.448-.384.831-.639,1.407.639.384,1.151.7,1.662.959a40.128,40.128,0,0,0,11.125,3.772,56.682,56.682,0,0,1,18.862,6.586c1.215.7,2.43,1.471,3.964,2.366a4,4,0,0,0-1.982-3.389A56.791,56.791,0,0,0,129.2,49.066a47.488,47.488,0,0,1-14.45-4.8,1.419,1.419,0,0,0-.575-.064ZM123.83,86.79a92.756,92.756,0,0,0,17.775,13.3c6.074,3.581,12.532,6.2,18.926,9.207a3.785,3.785,0,0,0,.959.256c-.639-1.343-1.087-2.43-2.366-2.941-1.471-.575-2.877-1.343-4.348-1.918a109.781,109.781,0,0,1-15.6-8.184,92.015,92.015,0,0,1-25.256-23.466c-.192-.256-.448-.512-.639-.767.575,3.772.512,3.836,2.046,5.563,2.813,3.005,5.563,6.074,8.5,8.951Z" transform="translate(-27.046 -9.34)" fill="#fff"/>
      <path id="Path_37170" data-name="Path 37170" d="M101.983,71.034c-.32,1.343-.639,2.43.064,3.645A48.594,48.594,0,0,0,124.49,95.97a85.039,85.039,0,0,1,13.875,7.865,54.476,54.476,0,0,1,14.131,14.514,35.473,35.473,0,0,1,5.627,15.09c.192,1.535.192,3.005.256,4.54,1.023-1.407,1.854-2.749,1.6-4.668a38.728,38.728,0,0,0-6.2-16.368,56.471,56.471,0,0,0-15.026-15.154,88.191,88.191,0,0,0-13.363-7.481,46.126,46.126,0,0,1-13.619-9.591,49.233,49.233,0,0,1-8.76-12.34C102.686,71.993,102.558,71.417,101.983,71.034ZM51.024,174.551c-.256,1.6-.256,1.6.959,1.79,1.79.32,3.645.639,5.435,1.087,11.7,2.941,21.164,9.463,29.284,18.159.639.7,1.279,1.407,1.982,2.11.384-.128.575-.192.831-.256a3.229,3.229,0,0,0,.831-.512c-.575-.639-.959-1.151-1.407-1.662a79.705,79.705,0,0,0-9.591-9.015,55.865,55.865,0,0,0-26.535-11.637c-.639-.064-1.215,0-1.79-.064ZM103.581,60.1a14.63,14.63,0,0,1-.639,1.471c.575.32,1.023.639,1.535.9a48.056,48.056,0,0,0,12.6,4.284,82.112,82.112,0,0,1,8.888,2.238,50.435,50.435,0,0,1,15.6,8.632c.384.32.831.575,1.279.9a4.715,4.715,0,0,0-1.726-3.581,52.324,52.324,0,0,0-21.228-9.527,53.328,53.328,0,0,1-15.537-5.051c-.128-.064-.384-.128-.767-.256Z" transform="translate(-18.242 -21.781)" fill="#fff"/>
      <path id="Path_37171" data-name="Path 37171" d="M132.288,69.8A45.4,45.4,0,0,0,149.1,91.156a72.184,72.184,0,0,0,9.015,4.859,67.177,67.177,0,0,1,23.018,17.264,42.728,42.728,0,0,1,9.719,19.437,7.755,7.755,0,0,0,.32.9,3.2,3.2,0,0,0,1.023-3.389,44.821,44.821,0,0,0-5.882-13.108,61.3,61.3,0,0,0-17.9-17.455A109.739,109.739,0,0,0,155.178,92.5a41.075,41.075,0,0,1-17.583-16.241c-1.471-2.558-2.622-5.307-3.9-7.992-.32-.575-.448-1.279-1.343-1.215-.575,1.407-.575,1.535-.064,2.749Zm68.862-2.238c-1.6-1.023-1.662-1.023-2.877-.064A43.35,43.35,0,0,0,187.531,80.35c-.575,1.023-.512,1.215.512,2.3,1.918-2.749,3.772-5.5,5.755-8.184A37.812,37.812,0,0,1,201.15,67.563Z" transform="translate(-47.46 -24.192)" fill="#fff"/>
      <path id="Path_37172" data-name="Path 37172" d="M201.144,48.774c-.256-1.918-.32-1.918-2.046-2.174a10.866,10.866,0,0,0,.064,1.471c.128,1.087.32,2.238.512,3.325a82.3,82.3,0,0,0,11.957,29.8c.639,1.023,1.471,1.215,2.749.959-.384-.575-.639-1.087-.959-1.535a82.1,82.1,0,0,1-7.033-13.235,74.579,74.579,0,0,1-5.243-18.606Zm16.944,33.312c.384-.7.7-1.407,1.023-2.046A38.146,38.146,0,0,1,226.976,69.3a17.43,17.43,0,0,1,7.928-4.412,5.911,5.911,0,0,0,.639-.32c-2.11-1.279-2.366-1.279-4.348-.32a21.1,21.1,0,0,0-6.33,4.476A45.316,45.316,0,0,0,216.3,81.511a5.328,5.328,0,0,0-.256.959c1.343.767,1.471.767,2.046-.384Zm-10.934-33.12a3.082,3.082,0,0,0-.767,0,1.822,1.822,0,0,0,.831.767,169.278,169.278,0,0,0,27.558,12.98c6.394,2.3,12.788,4.668,19.182,6.969a4.789,4.789,0,0,0,1.023.256c.575-1.6.575-1.662-.831-2.174-5.243-1.918-10.55-3.964-15.857-5.755a155.54,155.54,0,0,1-24.105-10.55,21.528,21.528,0,0,0-7.033-2.494Z" transform="translate(-71.687 -16.913)" fill="#fff"/>
      <path id="Path_37173" data-name="Path 37173" d="M175.117,45.774c-.256-1.662-.32-1.726-1.982-2.174a7.67,7.67,0,0,0,0,1.215c.256,1.982.512,3.964.831,5.946A84.266,84.266,0,0,0,184.9,79.726c.7,1.215.959,1.279,2.558.767l-.767-1.343a82.284,82.284,0,0,1-9.527-22.379C176.268,53.191,175.757,49.482,175.117,45.774Zm17.967,32.673c.767-1.343,1.471-2.685,2.238-3.964a47.074,47.074,0,0,1,2.622-3.964A30.616,30.616,0,0,1,200.885,67a41.716,41.716,0,0,1,3.517-3.2c1.151-.9,2.43-1.662,3.772-2.558-1.726-1.023-1.726-1.023-3.069-.192-.575.384-1.215.767-1.79,1.215a40.5,40.5,0,0,0-11,13.811c-.512.959-.384,1.215.767,2.366Zm1.279-28.773c3.389,1.471,6.65,2.941,9.847,4.284s6.586,2.558,9.911,3.772,6.714,2.366,10.1,3.645c3.261,1.215,6.586,2.43,9.975,3.708.128-.7.256-1.215.32-1.6a2.039,2.039,0,0,0-.448-.384c-1.087-.448-2.174-.9-3.261-1.279-10.614-4.028-21.42-7.417-31.778-12.021a7.258,7.258,0,0,0-4.668-.128ZM146.6,70.454a40.569,40.569,0,0,1-5.051-8.056,2.927,2.927,0,0,0-2.749-1.726c.192.512.256.831.384,1.151a41.164,41.164,0,0,0,11.7,15.537,51,51,0,0,0,10.742,6.458,77.794,77.794,0,0,1,16.049,9.847c6.778,5.5,12.468,11.957,16.241,19.949,1.023,2.174,1.79,4.412,2.749,6.841a2.062,2.062,0,0,0,.9-2.813c-1.023-2.3-1.854-4.668-3.005-6.841-4.348-8.312-10.678-14.9-18.223-20.461a87.955,87.955,0,0,0-15.793-9.079A39.642,39.642,0,0,1,146.6,70.454Zm56.778,41.177c.064.064.192.064.256.128.639-1.087,1.918-1.726,1.982-3.133a24.548,24.548,0,0,0-.192-4.859c-1.151-5.882-4.731-9.719-10.294-11.829a29.2,29.2,0,0,0-14.642-1.279c-.128,0-.32.192-.512.32a2.845,2.845,0,0,0,2.941,1.279,23.984,23.984,0,0,1,13.171,2.11,13.581,13.581,0,0,1,7.737,13.811c-.128,1.151-.32,2.3-.448,3.453Z" transform="translate(-49.944 -15.831)" fill="#fff"/>
      <path id="Path_37174" data-name="Path 37174" d="M228.681,130.185c1.215-.959,1.79-1.854,1.343-3.2s-.7-2.685-1.215-3.964a19.525,19.525,0,0,0-12.788-11.253c-6.33-2.046-12.788-1.726-19.246-.448a5.753,5.753,0,0,0-.575.32,2.679,2.679,0,0,0,2.877,1.151,34.531,34.531,0,0,1,4.412-.512,28.372,28.372,0,0,1,14.386,2.238,17.271,17.271,0,0,1,10.614,14.642,3.92,3.92,0,0,0,.192,1.023Z" transform="translate(-70.643 -39.883)" fill="#fff"/>
      <path id="Path_37175" data-name="Path 37175" d="M187.813,69.323a3.256,3.256,0,0,0,2.813,1.087c2.749-.512,5.5-1.023,8.312-1.343a32.193,32.193,0,0,1,13.939,1.343c7.737,2.494,13.044,7.481,15.281,15.409a8.9,8.9,0,0,0,.384.831,2.286,2.286,0,0,0,.9-3.005,23.568,23.568,0,0,0-7.417-10.486C216.841,69,210.7,67.341,204.181,67.085A50.883,50.883,0,0,0,188.708,69,2.168,2.168,0,0,0,187.813,69.323Zm-1.726-43.095a12.283,12.283,0,0,0,0,1.535c.32,2.622.512,5.307.959,7.928a86.958,86.958,0,0,0,10.422,28.964c.7,1.215.767,1.215,2.3.7,0-.192,0-.32-.064-.384-.575-1.023-1.151-2.046-1.662-3.069a84.355,84.355,0,0,1-10.1-33.824C187.813,26.74,187.621,26.548,186.086,26.228Zm34.4,7.417c1.215.9,30.307,11.765,31.778,11.893.128-.448.256-.9.448-1.535-1.726-.7-3.325-1.343-4.923-1.918-7.673-2.813-15.345-5.563-23.018-8.5a6.56,6.56,0,0,0-4.284.064ZM374.963,1.1c-.767.448-1.215.639-1.6.9a25.032,25.032,0,0,1-7.289,2.685,37.321,37.321,0,0,1-11.317.128,26.072,26.072,0,0,0-22.57,7.545,41.484,41.484,0,0,0-7.353,9.975c-4.284,7.992-6.714,16.624-8.312,25.576-.256,1.343-.448,2.685-.639,4.156,1.726.064,1.726.064,1.982-1.087.064-.384.128-.831.192-1.215a97.568,97.568,0,0,1,4.8-18.542,50.474,50.474,0,0,1,8.76-15.537c6.01-7.033,13.619-10.166,22.89-9.079a40.6,40.6,0,0,0,9.655.192A25.211,25.211,0,0,0,374.835,3.21c.384-.256.7-.512,1.215-.9C375.6,1.8,375.282,1.484,374.963,1.1Z" transform="translate(-66.988 -0.505)" fill="#fff"/>
      <path id="Path_37176" data-name="Path 37176" d="M313.445,1.043c-2.685.128-5.435,0-8.12,0A37.947,37.947,0,0,0,295.286,2c-7.225,1.854-12.212,6.2-14.578,13.363a16.71,16.71,0,0,0-.384,1.726c1.471.32,1.6.32,2.046-.767.128-.32.256-.7.384-1.023a17.43,17.43,0,0,1,11.189-11,26.8,26.8,0,0,1,8.12-1.471h9.655a40.921,40.921,0,0,0,11.829-1.6A38.7,38.7,0,0,0,327.639-.3h-5.5a36.247,36.247,0,0,1-8.7,1.343ZM107.689,180.136a36.1,36.1,0,0,1,3.836-1.982c2.174-.959,4.348-1.79,6.522-2.685,1.151-.448,1.215-.575.575-2.174-2.046.767-3.964,1.535-5.946,2.3a40.492,40.492,0,0,0-8.376,4.54Zm252.048-160.3c-.192-.448-.256-.767-.384-1.023A17.264,17.264,0,0,1,357.691,13a2.18,2.18,0,0,0-1.726-1.982c-.448,2.685.831,7.609,2.43,9.335a7.456,7.456,0,0,1,1.343-.512ZM209.16,24.764c1.726,1.471,3.389,2.941,5.051,4.412,3.708,3.2,7.353,6.458,9.911,10.934a2.475,2.475,0,0,0,.064-3.389,59.85,59.85,0,0,0-8.44-8.632c-3.005-2.685-6.2-5.5-9.143-8.44a30.262,30.262,0,0,1-7.545-12.98A67.666,67.666,0,0,1,197.4-.236h-1.854l.192,1.151A39.8,39.8,0,0,0,209.16,24.764Zm156.779-3.517c.7-.256,1.407-.575,2.11-.9A81.452,81.452,0,0,0,397.077-.236h-2.494l-.192.192A80.512,80.512,0,0,1,358.842,21.7c-.512.128-1.023.32-1.79.575A14.353,14.353,0,0,0,365.939,21.247ZM176.487,18.434a9.439,9.439,0,0,0,.767-1.854A37.813,37.813,0,0,0,179.94-.236h-1.79c.064.831.128,1.662.128,2.494a34.962,34.962,0,0,1-3.261,15.026c-.256.512-.448,1.023-.639,1.471C175.784,19.585,175.912,19.585,176.487,18.434Zm-4.476-.192c.256-.384.448-.7.639-.959A31.733,31.733,0,0,0,175.976,5.71a36.932,36.932,0,0,0,.064-5.946h-1.854c0,.32.064.639.064.9A34.181,34.181,0,0,1,170.541,17.6a7.328,7.328,0,0,0,1.471.639ZM294.519,165.3a37.578,37.578,0,0,1,1.407-9.975,26.214,26.214,0,0,0,1.023-6.33,30.333,30.333,0,0,0-3.069-13.619c-3.645-7.992-9.079-14.642-15.026-20.972a4.7,4.7,0,0,0-.767-.575,3.363,3.363,0,0,0,.767,3.325,31.245,31.245,0,0,1,2.366,2.622,69.6,69.6,0,0,1,10.742,15.793c3.069,6.458,4.22,13.108,2.046,20.077a31.969,31.969,0,0,0-1.279,10.166,42.488,42.488,0,0,0,2.685,14.386H297.4a37.468,37.468,0,0,1-2.877-14.9Zm83.121,12.98a10.152,10.152,0,0,0-.512-5.435c-.192.512-.256.7-.32.9-.512,2.11-1.023,4.284-1.471,6.458h1.918Zm-1.535-7.928c1.279-.767,1.279-.767.831-2.558a84.764,84.764,0,0,0-17.583,12.4H362.1c.639-.575,1.279-1.087,1.982-1.662a86.5,86.5,0,0,1,12.021-8.184Zm-83.185,9.783h.639a13.684,13.684,0,0,0-.639-1.407Zm-41.624,0a51.375,51.375,0,0,0,.192-13.3,39.5,39.5,0,0,0-8.056-19.629,55.223,55.223,0,0,0-8.951-8.76A97.346,97.346,0,0,1,219.9,124c-5.882-7.289-10.358-15.345-12.468-24.553a9.956,9.956,0,0,0-.384-.959c-1.407,1.215-1.407,1.215-1.087,2.685a4.712,4.712,0,0,0,.256.9,62.011,62.011,0,0,0,10.422,20.716,98.1,98.1,0,0,0,17.519,17.775,50.122,50.122,0,0,1,8.056,7.992,37.513,37.513,0,0,1,7.737,20.524,49.19,49.19,0,0,1-.448,11.061ZM289.915,79.368a48.281,48.281,0,0,1,1.215,5.051c.256,1.215.575,1.407,1.982,1.151-.064-.639-.128-1.279-.256-1.982-1.215-7.865-5.179-13.747-12.276-17.519A36.989,36.989,0,0,0,267.153,62.1c-4.348-.448-8.632-.639-12.98-.9a126.671,126.671,0,0,1-18.99-2.558,13.849,13.849,0,0,0-1.6-.256c-.448,1.6-.384,1.662,1.023,1.982a117.188,117.188,0,0,0,14.834,2.3c4.987.384,9.974.575,14.962.959a40,40,0,0,1,13.363,3.133c5.818,2.558,10.038,6.586,12.148,12.6Zm116.433,81.97a85.9,85.9,0,0,0,3.069,17.967c.064.32.192.575.256.9h1.982c-.384-1.215-.7-2.43-1.023-3.581a72.82,72.82,0,0,1-2.558-17.391,49.779,49.779,0,0,1,2.046-15.921c.064-.256.128-.575.192-.831-1.407,1.662-2.941,3.2-3.325,5.5a71.488,71.488,0,0,0-.639,13.363Z" transform="translate(-37.503 0)" fill="#fff"/>
      <path id="Path_37177" data-name="Path 37177" d="M464.191,134.446c-.064-.064-.064-.192-.128-.256a7.235,7.235,0,0,0-.831-.639,39.9,39.9,0,0,0-30.819-5.115,144.217,144.217,0,0,1-22.187,2.813,114.91,114.91,0,0,1-23.4-1.151,93.691,93.691,0,0,1-30.307-9.847,5.53,5.53,0,0,0-1.087-.448c-.128,1.535.256,2.3,1.471,2.813.512.192,1.023.512,1.535.7,3.517,1.471,6.905,3.069,10.486,4.348a102.776,102.776,0,0,0,26.663,5.307,118.226,118.226,0,0,0,22.315-.448c5.5-.639,10.934-1.6,16.368-2.558a41.33,41.33,0,0,1,13.747-.256,37.647,37.647,0,0,1,13.939,5.243c1.215.7,1.215.7,2.238-.512ZM337.4,101.453c.512.575.831.959,1.151,1.279a69.924,69.924,0,0,1,19.885,42.647,7.788,7.788,0,0,0,2.11,3.964,6.9,6.9,0,0,0,0-1.151c-.32-2.941-.512-5.882-1.023-8.824A71.893,71.893,0,0,0,341.108,102.6C340.213,101.517,339.126,101.2,337.4,101.453Z" transform="translate(-121.561 -36.663)" fill="#fff"/>
      <path id="Path_37178" data-name="Path 37178" d="M388.773,140.232c-.448-.32-.831-.575-1.215-.831a34.783,34.783,0,0,0-23.4-4.284c-7.992,1.343-15.921,2.813-23.977,3.261a126.708,126.708,0,0,1-24.617-.831,99.668,99.668,0,0,1-29.028-8.44,4.852,4.852,0,0,0-1.151-.384,2.741,2.741,0,0,0,1.854,2.813c2.685,1.023,5.307,2.174,7.992,3.133a108.645,108.645,0,0,0,28.2,5.563,134.1,134.1,0,0,0,19.629-.128,167.457,167.457,0,0,0,19.437-2.813,33.9,33.9,0,0,1,24.041,3.645c1.087.575,1.087.575,2.238-.7Zm26.663,79.221a1.752,1.752,0,0,1-.256.32c-.064.128-.064.256-.128.32h.639a2.672,2.672,0,0,0-.256-.639Zm-269.7-34.207a6.583,6.583,0,0,0,.128,5.5c.9,1.726,1.535,3.325,2.43,4.923A68.692,68.692,0,0,0,163.771,213.7a90.923,90.923,0,0,1,6.714,6.394h2.494a64.662,64.662,0,0,0-6.65-6.586,89.826,89.826,0,0,1-10.23-10.1c-4.476-5.243-8.12-10.87-9.974-17.583a4.338,4.338,0,0,0-.384-.575ZM137.684,110.5c-.128.064-.256.192-.384.256a9.4,9.4,0,0,0,.767,3.708c.7,1.343,1.279,2.685,1.918,4.028a72.3,72.3,0,0,1,5.882,20.588c.384,3.2.512,6.394.831,9.591,1.023,10.358,6.2,17.967,15.281,23.018.448.256.9.384,1.407.639.384-1.6.32-1.662-.767-2.366a44.115,44.115,0,0,1-5.563-4.028c-5.755-5.115-8.248-11.765-8.7-19.31-.192-2.685-.32-5.435-.639-8.12a77.381,77.381,0,0,0-8.76-26.471c-.384-.575-.9-1.023-1.279-1.535Z" transform="translate(-49.403 -39.955)" fill="#fff"/>
      <path id="Path_37179" data-name="Path 37179" d="M142.255,143.808c.384,3.325.448,6.714.831,10.1,1.471,12.468,7.992,21.292,19.246,26.663a6.99,6.99,0,0,0,1.087.32c.384-1.6.384-1.6-1.023-2.3-11.381-5.818-17.327-15.154-17.775-27.814a72.188,72.188,0,0,0-5.627-25.448c-.128-.384-.384-.7-.512-1.023-.192,1.854-.448,3.645.256,5.435a59.681,59.681,0,0,1,3.517,14.067Zm42.647,3.836c-2.813-1.343-5.563-2.749-8.44-3.964a106.159,106.159,0,0,1-31.65-20.4,5.789,5.789,0,0,0-.7-.384c.9,2.941,1.023,3.261,2.238,4.284a101.937,101.937,0,0,0,23.466,15.409c5.243,2.494,10.486,4.987,15.793,7.481a8.366,8.366,0,0,0,.959.32,2.782,2.782,0,0,0-1.662-2.749Zm1.535,5.435c-3.708-1.918-7.417-3.964-11.253-5.627a120.472,120.472,0,0,1-27.11-15.985,5.039,5.039,0,0,0-1.023-.512,4.476,4.476,0,0,0,1.662,3.453,116.312,116.312,0,0,0,23.594,13.811c5.115,2.238,10.23,4.476,14.834,7.609a2.9,2.9,0,0,0,.512.128,2.148,2.148,0,0,0-1.215-2.877Z" transform="translate(-49.755 -44.427)" fill="#fff"/>
      <path id="Path_37180" data-name="Path 37180" d="M146.78,156.771c-.32.384-.639.767-1.023,1.279.384.448.7.831,1.151,1.343.575-.639.959-1.023,1.343-1.535a52.257,52.257,0,0,0,6.841-10.678,34.367,34.367,0,0,0,2.366-24.041,48.673,48.673,0,0,0-9.591-18.031,59.89,59.89,0,0,0-6.841-7.289,5.46,5.46,0,0,0,1.471,4.092,54.8,54.8,0,0,1,10.934,15.473c4.412,9.591,4.54,19.182.128,28.773a50.576,50.576,0,0,1-6.778,10.614Zm100,14.322c-1.471-.192-2.941-.32-4.412-.512a85.312,85.312,0,0,1-28.2-8.824c-.32-.192-.639-.256-.959-.448-.384,1.6-.256,1.79.831,2.43a5.281,5.281,0,0,1,.831.448,87.873,87.873,0,0,0,29.412,8.5c1.151.128,2.3.192,3.389.256.32-1.662.32-1.726-.9-1.854Zm-109.72-40.282a5.984,5.984,0,0,0-.256,1.023c-.448,2.11-.831,4.22-1.343,6.266a121.113,121.113,0,0,0-3.708,26.215,82.846,82.846,0,0,0,.831,13.171c.128.9.32,1.79.448,2.685h1.854a71.832,71.832,0,0,1-1.279-13.875,107.188,107.188,0,0,1,3.133-25.512c.575-2.558,1.215-5.179,1.726-7.8.128-1.215-.064-1.471-1.407-2.174Zm107.354,43.67a2.679,2.679,0,0,0-3.069.192,38.837,38.837,0,0,1-9.783,5.5h4.476A40.5,40.5,0,0,0,243.2,175.5c.384-.256.7-.639,1.215-1.023Zm-67.775-40.41c-.32,1.407.32,2.43,1.151,3.836.128-.575.128-.831.192-1.087a65.793,65.793,0,0,1,5.627-17.264c4.54-9.4,10.614-17.839,17.264-25.831,2.238-2.685,4.348-5.435,6.522-8.12a2.09,2.09,0,0,0-.064-3.069,8.594,8.594,0,0,0-.7.9c-1.215,1.662-2.366,3.325-3.645,4.923-2.3,2.813-4.668,5.563-6.905,8.376a113.3,113.3,0,0,0-15.154,24.233,66.888,66.888,0,0,0-4.284,13.108ZM442.626,148.2c.256-1.535.256-1.6-1.023-2.11a68.7,68.7,0,0,1-10.934-5.243c-7.864-4.8-13.235-11.509-15.026-20.716-.448-2.3-.7-4.668-1.087-6.969a47.381,47.381,0,0,0-5.179-15.985,24.9,24.9,0,0,0-8.952-9.271,4.355,4.355,0,0,0-4.412,0c.448.192.639.32.831.384a20.582,20.582,0,0,1,9.911,8.12,33.714,33.714,0,0,1,4.987,12.148c.767,3.581,1.279,7.225,1.854,10.87a31.425,31.425,0,0,0,10.742,19.118c5.243,4.476,11.317,7.289,17.711,9.655ZM441.6,4.468a49.992,49.992,0,0,0-5.818-2.3,41.66,41.66,0,0,0-17.775-.32c-.256.064-.512.256-.959.384.192.512.32.959.512,1.471,8.7-1.343,17.136-1.535,25,3.389.064-.512.128-.959.192-1.215V5.618C442.754,5.043,442.434,4.851,441.6,4.468Zm-.064-2.494a5.439,5.439,0,0,0,1.087.384c.256-1.726.192-1.854-1.087-2.366-.128-.064-.256-.064-.384-.128h-5.946a26.318,26.318,0,0,1,6.33,2.11Zm-305.565,8.7a41.433,41.433,0,0,1-7.481,7.481c-1.407,1.151-2.813,2.366-4.156,3.645a36.573,36.573,0,0,0-9.975,16.3c-.448,1.471-.384,1.662,1.087,2.749.192-.575.32-1.087.512-1.6a36.491,36.491,0,0,1,3.133-7.673A40.352,40.352,0,0,1,129.9,19.365a36.746,36.746,0,0,0,7.928-8.12A19.811,19.811,0,0,0,141.792.312V-.2h-1.854a17.962,17.962,0,0,1-.32,3.133,20.518,20.518,0,0,1-3.645,7.737ZM424.915,32.409c-.192,1.535.128,1.982,1.6,2.174,5.371.831,10.358-.384,15.217-2.494,1.215-.512,1.215-.7.831-2.366C436.935,32.281,431.117,33.943,424.915,32.409Zm14.77-10.23c-1.982.767-3.964,1.726-6.01,2.3A11.967,11.967,0,0,1,422.485,22.5a1.919,1.919,0,0,0-.639-.32,2.807,2.807,0,0,0,1.662,3.2,14.527,14.527,0,0,0,8.056,1.407c3.836-.384,7.161-2.046,10.55-3.645.831-.384.831-.575.384-2.11-.959.384-1.854.767-2.813,1.151Z" transform="translate(-41.044 -0.036)" fill="#fff"/>
      <path id="Path_37181" data-name="Path 37181" d="M402.835,25.376a17.728,17.728,0,0,1-1.662.639c-1.662.639-3.261,1.407-4.987,1.982a17.538,17.538,0,0,1-9.079.7c-1.151-.256-2.238-.575-3.517-.959.128,1.79.256,1.982,1.6,2.366a18.331,18.331,0,0,0,6.969.575A30.62,30.62,0,0,0,402.2,27.55C403.283,27.1,403.283,26.91,402.835,25.376ZM77.577.375A117.89,117.89,0,0,1,93.562,9.2a12.537,12.537,0,0,0,1.343.767c.32-.512.575-.9.9-1.343-.448-.32-.7-.575-1.023-.767C91,5.682,87.3,3.381,83.523,1.335c-.9-.512-1.79-.959-2.749-1.407H76.426a3.1,3.1,0,0,1,1.151.448ZM16.515,22.243A121.018,121.018,0,0,1,14.022,1.91,4.725,4.725,0,0,0,13.446-.2H12.3a105.909,105.909,0,0,0,2.877,24.489C16.771,23.649,16.835,23.649,16.515,22.243Zm-4.987,4.092c1.662-.639,1.662-.7,1.343-2.174A117.789,117.789,0,0,1,9.993-.008V-.2H8.139a124.715,124.715,0,0,0,2.494,22.826c.256,1.279.575,2.494.9,3.708ZM4.431,6.258a112.847,112.847,0,0,0,3.2,21.164,6.816,6.816,0,0,0,.448,1.215c1.6-.7,1.6-.7,1.215-2.366A115.378,115.378,0,0,1,6.029-.2H4.239a5.16,5.16,0,0,0-.064,1.726C4.3,3.061,4.367,4.659,4.431,6.258ZM402.068,141.809c-3.005-1.471-6.074-2.749-8.951-4.412a26.942,26.942,0,0,1-11.957-13.555,38.613,38.613,0,0,1-1.982-8.951,57.041,57.041,0,0,0-4.54-16.816,31.572,31.572,0,0,0-7.928-10.806,2.784,2.784,0,0,0-3.325-.384c1.087.9,2.11,1.662,3.005,2.558a31.153,31.153,0,0,1,7.865,12.468,65.5,65.5,0,0,1,3.389,15.218,28,28,0,0,0,11.637,19.949A56.324,56.324,0,0,0,402,143.791a3.69,3.69,0,0,0,.9.192c.384-1.471.32-1.6-.831-2.174Zm.831,35.167c-.32,1.087-.575,2.174-.9,3.2h1.087v-3.2C403.091,177.039,402.963,176.975,402.9,176.975Zm-11.445-25a37.725,37.725,0,0,1-7.928-11.573,12.374,12.374,0,0,0-3.069-3.708c-.128.064-.192.128-.32.192.192.575.384,1.151.575,1.662a42.057,42.057,0,0,0,9.591,14.834,41.812,41.812,0,0,1,6.266,7.545,17.743,17.743,0,0,1,2.941,10.294,31.328,31.328,0,0,1-1.407,8.12c-.064.256-.192.575-.256.831h1.918c.448-1.343.767-2.685,1.087-4.092a20.77,20.77,0,0,0-3.581-17.455,81.689,81.689,0,0,0-5.818-6.65ZM14.917,178.957c-.7-.192-1.215-.256-1.79-.448-.256.575-.512,1.087-.767,1.6h1.982a9.592,9.592,0,0,0,.575-1.151ZM310.252,4.851c-.575.256-1.023.448-1.407.639a30.658,30.658,0,0,1-16.688,3.133c-2.046-.128-4.092-.384-6.138-.448a20.851,20.851,0,0,0-15.026,5.115,34.63,34.63,0,0,0-8.632,11.253,83.379,83.379,0,0,0-7.8,25.256,6.923,6.923,0,0,0,0,1.151c1.662-.064,1.662-.064,1.918-1.6a96.488,96.488,0,0,1,4.476-17.008,48.671,48.671,0,0,1,7.225-13.427c5.179-6.522,11.829-9.783,20.269-8.7a41.043,41.043,0,0,0,10.1.256,33.626,33.626,0,0,0,10.294-2.749,2.4,2.4,0,0,0,1.407-2.877Z" transform="translate(-1.381 -0.036)" fill="#fff"/>
      <path id="Path_37182" data-name="Path 37182" d="M400.815,58.021c-7.8-4.987-13.235-12.021-16.944-20.461a76.606,76.606,0,0,1-5.115-17.136A133.042,133.042,0,0,0,373.768.539c-.064-.192-.192-.448-.256-.639h-1.535c-.192.384-.128.7.128,1.471a135.232,135.232,0,0,1,4.8,19.31,72.526,72.526,0,0,0,6.714,20.78,45.989,45.989,0,0,0,16.113,18.159c.575.384,1.151.639,1.854,1.087a2.2,2.2,0,0,0,.192-.831v-.384a1.918,1.918,0,0,0-.959-1.471ZM30.735,31.678c-.448.192-.9.32-1.407.512a3.6,3.6,0,0,0,.128.639c.192.384.384.7.575,1.087a60.492,60.492,0,0,0,8.056,10.422,72.36,72.36,0,0,0,17.9,13.171c5.755,3.005,11.573,5.946,16.816,9.783a1.8,1.8,0,0,0,.7.256,3.535,3.535,0,0,0-1.79-3.261c-2.558-1.471-5.051-3.133-7.609-4.6-3.708-2.11-7.545-3.9-11.189-6.074A61.529,61.529,0,0,1,31.374,32.445a8.12,8.12,0,0,1-.639-.767Zm361.9,77.75c1.471,2.174,2.813,4.412,4.284,6.522,1.407,1.982,2.877,3.9,4.348,5.882l.384-.192a1.407,1.407,0,0,0,.064-.512v-1.087a3.2,3.2,0,0,0-.639-1.535c-1.726-2.366-3.389-4.731-4.987-7.161a86.048,86.048,0,0,0-7.673-10.294A53.67,53.67,0,0,0,375.559,90.5c-.384-.256-.767-.639-1.407-.384a9.337,9.337,0,0,0,2.494,3.133,57.476,57.476,0,0,1,15.985,16.177Zm8.056-27.814c-2.494-.959-4.923-1.982-7.481-2.749-11.381-3.581-23.082-4.22-34.911-3.005a132.2,132.2,0,0,0-34.271,8.632c-.384.128-.767.384-1.087.512a6.611,6.611,0,0,0,4.284.256c3.517-1.215,7.033-2.43,10.614-3.453a105.268,105.268,0,0,1,39.386-4.22,72.839,72.839,0,0,1,22.634,5.755,15.623,15.623,0,0,1,1.535.639,5.915,5.915,0,0,0,.256-1.215v-.128c.064-.512-.192-.7-.959-1.023ZM368.4,86.857c0,.128-.064.192,0,.256a2.666,2.666,0,0,0,.384.512,37.185,37.185,0,0,1,7.992,13.3,72.161,72.161,0,0,1,3.517,15.985,23.581,23.581,0,0,0,7.225,14.706,40.867,40.867,0,0,0,13.619,8.056c.128.064.256,0,.448-.064.256-1.535.256-1.6-1.023-2.11a42.8,42.8,0,0,1-9.719-5.5,22.149,22.149,0,0,1-8.76-15.281,77.369,77.369,0,0,0-3.069-14.834,43.684,43.684,0,0,0-7.545-14.131,2.833,2.833,0,0,0-3.069-.9ZM23.318,34.747c-.512.256-.959.448-1.343.639a4.073,4.073,0,0,0,.128.575,11.112,11.112,0,0,0,.639,1.215A68.524,68.524,0,0,0,45.5,60.514c4.284,2.749,8.888,5.051,13.363,7.481A61.522,61.522,0,0,1,74.853,79.76c.256.256.512.448.9.831a3.517,3.517,0,0,0-1.279-3.9c-2.046-1.662-4.028-3.453-6.2-4.987a93.358,93.358,0,0,0-13.619-7.928A85.355,85.355,0,0,1,42.883,56.55,67.948,67.948,0,0,1,24.021,35.834,5.217,5.217,0,0,0,23.318,34.747ZM1.9,180.208H4.072a44.811,44.811,0,0,1-2.813-4.8,5.9,5.9,0,0,0-.7-.9,2.865,2.865,0,0,0-.064.7v1.726A5.671,5.671,0,0,0,1.579,179.7a1.394,1.394,0,0,0,.32.512Zm.064-19.374a25.339,25.339,0,0,0,12.4,8.376c2.941.9,5.946,1.535,8.888,2.238a37.379,37.379,0,0,1,17.008,8.76h2.685a34.963,34.963,0,0,0-3.261-2.877,40.563,40.563,0,0,0-17.711-7.992,71.579,71.579,0,0,1-7.289-1.854,22.2,22.2,0,0,1-11.317-7.8,53.277,53.277,0,0,1-2.941-4.668c-.064.256-.064.448-.128.7v1.726a8.836,8.836,0,0,0,1.662,3.389Z" transform="translate(0 -0.072)" fill="#fff"/>
      <path id="Path_37183" data-name="Path 37183" d="M28.369,51.8c-.512.256-.959.448-1.471.7.32.639.575,1.215.9,1.726a65.8,65.8,0,0,0,21.8,22c3.9,2.494,8.056,4.6,12.148,6.778a77.265,77.265,0,0,1,12.788,8.376c.575.448,1.087.9,1.79,1.535A3.939,3.939,0,0,0,74.6,89.077c-.767-.512-1.471-1.087-2.174-1.662a102.789,102.789,0,0,0-14.258-8.376,87.073,87.073,0,0,1-11.637-7.1A63.939,63.939,0,0,1,29.072,52.823c-.192-.32-.448-.639-.7-1.023ZM6.438,176.609c3.772.831,7.545,1.726,11.317,2.558,1.087.256,2.174.384,3.389.575.128-1.662.064-1.726-1.343-2.046L5.479,174.435c-.384-.064-.767-.128-1.279-.256A2.942,2.942,0,0,0,6.438,176.609Zm390.476-5.946c-2.046-2.494-4.22-4.859-6.394-7.225a7.071,7.071,0,0,0-3.133-1.854,9.59,9.59,0,0,0,1.471,2.622c1.854,2.238,3.772,4.412,5.754,6.586,3.517,3.9,6.778,7.928,8.248,13.108,0,.064.128.128.32.256V180a6.867,6.867,0,0,0-1.215-2.813c-1.662-2.174-3.261-4.412-5.051-6.522Zm5.627-40.154c-1.726-2.494-3.261-5.051-5.051-7.481a61.873,61.873,0,0,0-17.008-16.368c-1.6-1.023-3.325-.959-5.115-.831a5.843,5.843,0,0,0,.831.512,53.67,53.67,0,0,1,12.852,9.527,75.117,75.117,0,0,1,10.422,13.363c.9,1.407,1.79,2.749,2.685,4.092a9.987,9.987,0,0,0,.831.831c.064-.256.064-.575.128-.831v-1.279a3.038,3.038,0,0,0-.575-1.535Z" transform="translate(-1.406 -18.788)" fill="#fff"/>
      <path id="Path_37184" data-name="Path 37184" d="M.528,65.029c.959-1.79,1.726-3.389,2.622-4.8a38.673,38.673,0,0,1,12.4-11.893,73.057,73.057,0,0,1,15.537-7.225c1.6-.575,3.2-1.087,4.923-1.662-1.471-1.471-1.471-1.471-3.069-.9-2.877,1.023-5.818,2.046-8.632,3.2A57.471,57.471,0,0,0,8.137,51.6a39.175,39.175,0,0,0-7.1,8.44A4.783,4.783,0,0,0,.4,62.088v1.918a4.968,4.968,0,0,1,.128,1.023Zm5.627,38.3C4.3,100.771,2.574,98.278.848,95.848c-.192.128-.256.128-.256.128-.064.128-.064.256-.128.384V97.83a6.068,6.068,0,0,0,1.407,2.685,9.156,9.156,0,0,0,4.284,2.813ZM.784,50.259c7.673-8.312,17.391-13.108,27.686-16.816-.9-1.471-1.023-1.6-2.494-1.023A75.576,75.576,0,0,0,8.265,41.372C5.835,43.1,3.661,45.08,1.359,47a2.41,2.41,0,0,0-.9,1.535v.639a4.092,4.092,0,0,0,.32,1.087Zm18.734,114c.256-1.471.256-1.535-.959-1.79A111.04,111.04,0,0,1,2.83,158.508,3.377,3.377,0,0,0,2,158.444c-.128.512-.256.9-.384,1.279C3.661,161.13,16.832,164.455,19.518,164.263ZM.464,156.4a.812.812,0,0,0,.064.384.575.575,0,0,1,.32.064c.192-.639.384-1.215.512-1.854,2.11-8.824,1.662-17.583-.384-26.343a3.427,3.427,0,0,0-.32-.7c-.192,3.261-.064,6.458,0,9.655.064,2.494.256,4.987.192,7.481-.064,3.261-.192,6.586-.32,9.847V156.4Z" transform="translate(-0.036 -11.684)" fill="#fff"/>
      <path id="Path_37185" data-name="Path 37185" d="M14.427,67.8c-1.471.959-1.535,1.023-1.215,2.494a34.386,34.386,0,0,0,7.353,15.281A26.332,26.332,0,0,1,24.529,91.2a12.091,12.091,0,0,1-.767,12.276,16.624,16.624,0,0,1-4.987,4.923c-.384.256-.767.512-1.215.831.32.448.639.9,1.023,1.407a17.4,17.4,0,0,0,8.12-8.888,13.51,13.51,0,0,0,.448-8.7,18.542,18.542,0,0,0-4.156-7.417,33.248,33.248,0,0,1-8.184-16.88C14.682,68.439,14.554,68.184,14.427,67.8Z" transform="translate(-4.6 -24.557)" fill="#fff"/>
      <path id="Path_37186" data-name="Path 37186" d="M20.063,62.9c-1.535.831-1.6.959-1.407,2.43A31.656,31.656,0,0,0,26.2,82.018a32.654,32.654,0,0,1,2.877,3.772,16.251,16.251,0,0,1,2.366,12.6,17.3,17.3,0,0,1-5.818,9.527c-1.087.959-2.238,1.79-3.581,2.813l1.087,1.279a13.658,13.658,0,0,0,1.407-.831,39.748,39.748,0,0,0,4.54-4.092c4.859-5.882,5.946-12.4,3.005-19.5a26.473,26.473,0,0,0-4.731-7.1,29.361,29.361,0,0,1-6.905-16.432A8.1,8.1,0,0,0,20.063,62.9Z" transform="translate(-6.592 -22.79)" fill="#fff"/>
      <path id="Path_37187" data-name="Path 37187" d="M17.472,37.588c-1.471.512-1.662.7-1.6,1.79a27.385,27.385,0,0,0,6.2,16.5,40.832,40.832,0,0,1,3.772,4.987c4.348,7.161,4.668,14.45.448,21.8a23.657,23.657,0,0,1-6.905,7.353,16.773,16.773,0,0,0-1.343,1.087c.448.575.767.959,1.023,1.343a26.272,26.272,0,0,0,6.33-5.371c5.882-7.161,7.289-15.026,3.836-23.657A31.094,31.094,0,0,0,23.8,55.107a23.913,23.913,0,0,1-5.627-11.893C17.855,41.36,17.664,39.57,17.472,37.588ZM1.359,171.285a33.888,33.888,0,0,0,8.248,4.668,62.4,62.4,0,0,0,11.381,3.133,24.185,24.185,0,0,1,3.836,1.087h4.731l-1.151-.575a46.842,46.842,0,0,0-10.1-2.941,37.689,37.689,0,0,1-16.944-7.737,2,2,0,0,0-.639-.32c-.128.512-.192.831-.256,1.151v.32c.064.448.32.767.9,1.215ZM.72,92.384c-.448,1.535-.384,1.79.9,2.558A152.676,152.676,0,0,0,23.8,105.427,56.4,56.4,0,0,1,41,115.338c1.087.959,1.215.9,2.43-.064-.064-.064-.064-.192-.128-.256l-.639-.639a53.511,53.511,0,0,0-17.008-10.166A148.052,148.052,0,0,1,2,93.023,11.925,11.925,0,0,0,.72,92.384ZM1.679,73.65a122.692,122.692,0,0,0,18.67,24.936c1.535,1.6,3.517,2.11,5.435,2.941A121.34,121.34,0,0,1,.72,68.087,6.554,6.554,0,0,0,1.679,73.65ZM2.7,153a118.7,118.7,0,0,0,15.665,3.708,6.919,6.919,0,0,0,1.151,0c.192-1.535.192-1.6-1.087-1.854A117.936,117.936,0,0,1,2.19,150.888,8.875,8.875,0,0,0,1.1,150.7,2.189,2.189,0,0,0,2.7,153ZM.464,111.182a2.871,2.871,0,0,0,.767,1.6c1.471,1.535,2.877,3.2,4.284,4.8A67.1,67.1,0,0,1,16.7,135.223c1.087,2.685,1.854,5.5,2.813,8.248a14.387,14.387,0,0,1,.512,1.535,5.247,5.247,0,0,0,.639-3.9,49.931,49.931,0,0,0-3.517-9.335A84.561,84.561,0,0,0,1.3,110.223c-.192-.192-.448-.32-.767-.575a3.2,3.2,0,0,0-.128.767v.767ZM11.142,94.366c1.087,1.343,2.622,1.79,4.22,2.3A149.458,149.458,0,0,1,.72,76.719,4.783,4.783,0,0,0,1.1,80.683,139.07,139.07,0,0,0,11.142,94.366Zm352.113,3.069c-.767-.064-1.535-.256-2.3-.256a19.619,19.619,0,0,0-11.7,3.581,70.8,70.8,0,0,0-6.65,4.859,48.517,48.517,0,0,1-13.619,8.44,4.1,4.1,0,0,0-.639.384c1.535,1.279,1.6,1.343,3.069.575a41.081,41.081,0,0,0,5.5-2.941c2.749-1.854,5.371-3.9,7.928-6.01a35.431,35.431,0,0,1,10.23-6.138,13.6,13.6,0,0,1,9.911-.064,6.521,6.521,0,0,0,.959.256C365.492,98.586,364.789,97.563,363.255,97.435ZM361.784,6.514a89.821,89.821,0,0,1-21.931,16.3c-.448.256-.831.512-1.471.831a3.9,3.9,0,0,0,3.836,0A90.154,90.154,0,0,0,370.032-.2h-2.366a73.651,73.651,0,0,1-5.882,6.714ZM101.552,15.145a48.4,48.4,0,0,1-8.76,8.951,47.832,47.832,0,0,0-5.307,4.859,28.619,28.619,0,0,0-7.673,18.414c-.064,1.6.767,2.749,1.535,3.964.128-.128.192-.128.192-.128,0-.831.064-1.6.064-2.43a27.494,27.494,0,0,1,5.627-16.688,44.464,44.464,0,0,1,7.481-7.225,40.276,40.276,0,0,0,10.55-12.212A27.345,27.345,0,0,0,108.777-.136h-1.854a31.328,31.328,0,0,1-.256,3.453,26.464,26.464,0,0,1-5.115,11.829Zm268.992,58.44a5.87,5.87,0,0,1-.192-.575,16.984,16.984,0,0,1-3.261-11.7c.128-2.046.128-4.092.128-6.138A25.231,25.231,0,0,0,365.3,46.22c-.575-1.471-1.662-1.918-3.069-2.238.064.256.064.448.128.512a24.322,24.322,0,0,1,3.069,14.77,46.684,46.684,0,0,0-.064,5.179,17.673,17.673,0,0,0,2.43,7.992,2,2,0,0,0,2.749,1.151Zm29.348-4.8c.512.256,1.087.448,1.662.7.384-1.662.32-1.726-1.023-2.43a51.407,51.407,0,0,1-20.716-19.949,76.356,76.356,0,0,1-8.44-22.762c-1.151-5.563-2.43-11.061-3.645-16.624A18.044,18.044,0,0,0,367.155,6C365.684,7.089,365.684,7.153,366,8.56c1.215,5.307,2.366,10.678,3.517,15.985A75.37,75.37,0,0,0,378.6,48.649,52.47,52.47,0,0,0,399.892,68.79Zm-23.146,5.051c-.512-.448-.831-.767-1.151-1.023a11.963,11.963,0,0,1-4.54-9.463c0-1.6.064-3.2.128-4.731A32.607,32.607,0,0,0,370.16,48.33c-.384-1.279-.831-1.6-2.3-1.6a1.087,1.087,0,0,0,.064.448,30.883,30.883,0,0,1,1.471,12.532,29.9,29.9,0,0,0-.064,4.156,13.939,13.939,0,0,0,2.877,8.12,4.119,4.119,0,0,0,4.54,1.854ZM75.081,27.677a27.417,27.417,0,0,1-3.261-9.655,12.436,12.436,0,0,0-.32-1.279c-1.535,1.343-1.6,1.407-1.215,3.005.512,2.046,1.087,4.028,1.79,6.01.639,1.6,1.535,3.069,2.366,4.8C75.592,29.468,75.656,28.7,75.081,27.677ZM18.559,172.691c-6.65-1.471-12.6-4.22-17.264-9.335a6.692,6.692,0,0,0-.7-.512,2.814,2.814,0,0,0-.128.639v.831a3.466,3.466,0,0,0,1.215,2.046,32.756,32.756,0,0,0,7.737,5.179,52.087,52.087,0,0,0,12.021,3.581,33.031,33.031,0,0,1,12.4,5.051h3.2a36.446,36.446,0,0,0-11.317-5.818C23.354,173.65,20.924,173.2,18.559,172.691Zm45.461-139.9c-.448-.384-.9-.639-1.343-.959-1.023,1.279-.959,1.407,0,2.3,2.238,2.11,4.6,4.22,6.714,6.458A57.737,57.737,0,0,1,80.132,56.9a62.309,62.309,0,0,1,4.923,19.246A76.637,76.637,0,0,1,84.8,92.384a93.168,93.168,0,0,1-2.366,11.893c-.384,1.343-.256,1.535,1.151,2.238.128-.384.32-.7.448-1.087A79.27,79.27,0,0,0,86.59,73.266C84.416,56.834,76.615,43.47,64.019,32.793Z" transform="translate(-0.036 -0.036)" fill="#fff"/>
      <path id="Path_37188" data-name="Path 37188" d="M112.935,121.857c-.256,1.343-.256,1.407,1.215,2.174.192-.512.32-.831.448-1.215a73.558,73.558,0,0,0,1.6-31.01c-2.494-14.322-9.527-25.959-20.461-35.358A3.024,3.024,0,0,0,94.968,56c-.831,1.471-.831,1.471.32,2.494a60.346,60.346,0,0,1,13.555,17.072c5.946,11.445,7.481,23.657,5.946,36.317C114.406,115.208,113.574,118.532,112.935,121.857Zm127.686,73.018c-.384.256-.7.448-.959.639a43.107,43.107,0,0,1-6.458,4.923h3.325c1.151-.831,2.238-1.726,3.325-2.622a2.558,2.558,0,0,0,.767-2.941ZM405.584,148.9c-.831,1.662-1.6,3.325-2.43,4.923a71.044,71.044,0,0,1-14.386,18.223,2.7,2.7,0,0,0-.767,3.069c.512-.384.9-.639,1.279-.959,1.279-1.215,2.558-2.494,3.836-3.772a70.007,70.007,0,0,0,13.939-20.2,2.684,2.684,0,0,0-.512-3.453c-.384.831-.639,1.535-.959,2.174Z" transform="translate(-33.926 -20.302)" fill="#fff"/>
      <path id="Path_37189" data-name="Path 37189" d="M413.9,127.98a59.974,59.974,0,0,1-4.412,10.422,63.7,63.7,0,0,1-10.87,14.578c-.9.9-1.279,1.79-.639,2.941a.48.48,0,0,0,.32-.064,4.137,4.137,0,0,0,.575-.512,66.988,66.988,0,0,0,15.985-24.425c.575-1.6.192-2.941-.32-4.731a16.153,16.153,0,0,0-.639,1.79ZM380.011,73.888c3.325-.192,6.65-.32,9.974-.192a27.436,27.436,0,0,1,13.747,3.772,6.631,6.631,0,0,0,.639.256,3.152,3.152,0,0,0-1.918-3.069c-5.179-2.366-10.678-3.005-16.3-2.941-2.43.064-4.923.32-7.353.384a43.945,43.945,0,0,1-17.008-2.43,7.84,7.84,0,0,0-1.023-.256,2.132,2.132,0,0,0,1.6,2.43,48.472,48.472,0,0,0,17.647,2.046Zm38.747,64.387c-.128.064-.192.128-.256.128-.7,1.279-1.407,2.622-2.11,3.9a77.456,77.456,0,0,1-18.67,22.315,3.185,3.185,0,0,0-1.151,3.261c.767-.575,1.343-1.023,1.918-1.535a83.259,83.259,0,0,0,10.23-9.911,77.519,77.519,0,0,0,10.486-15.6,1.745,1.745,0,0,0-.448-2.558Zm-4.987-15.921c-.32.32-.639.639-.959,1.023a26.3,26.3,0,0,1-11.125,7.609,31.759,31.759,0,0,1-12.212,1.662h-1.982a2.585,2.585,0,0,0,2.685,1.854c1.982-.128,3.964-.064,5.946-.32a28.255,28.255,0,0,0,17.2-8.568,2.558,2.558,0,0,0,.575-3.261c-.064-.064-.128-.064-.128,0Zm-10.422-22.315a35.721,35.721,0,0,0-3.772.512,30.843,30.843,0,0,0-12.148,5.946c-2.558,1.918-4.923,3.964-7.481,5.882a31.2,31.2,0,0,1-12.66,5.946c-.256.064-.448.192-.831.32,1.279.9,2.43,1.407,3.836.831.575-.256,1.151-.384,1.726-.639a42.824,42.824,0,0,0,12.6-7.8,51.477,51.477,0,0,1,8.632-6.138,22.421,22.421,0,0,1,11.445-3.069c.384,0,.767-.064,1.407-.064-.767-1.215-1.535-1.854-2.749-1.726Zm-278.9-72.123a23.063,23.063,0,0,1-1.343-7.481c-.064-1.087-.192-1.151-1.6-1.535-.639,3.069.639,9.4,2.11,10.87C124.126,29.322,124.766,28.938,124.446,27.915ZM410.19,110.141a10.68,10.68,0,0,0-10.038-1.471,30.027,30.027,0,0,0-10.166,5.882,63.8,63.8,0,0,1-13.171,8.951c-.192.064-.32.256-.512.384,1.151,1.215,1.343,1.279,2.621.639a30.49,30.49,0,0,0,3.964-2.3c2.941-2.11,5.818-4.348,8.7-6.586a31.925,31.925,0,0,1,8.376-4.987q6.81-2.494,11.317,3.261c.384.512.767,1.023,1.215,1.535.064-.064.128-.064.256-.128-.256-.831-.512-1.662-.7-2.494a4.418,4.418,0,0,0-1.854-2.685Z" transform="translate(-43.647 -6.924)" fill="#fff"/>
      <path id="Path_37190" data-name="Path 37190" d="M384.862,118.05c-4.6,6.969-11.189,10.358-19.437,10.678a40.922,40.922,0,0,1-9.271-.7,6.624,6.624,0,0,0-1.279-.064c1.471,1.279,2.557,2.366,4.348,2.366,2.11,0,4.156.256,6.266.192,8.312-.256,15.09-3.453,20.141-10.23a3.052,3.052,0,0,0,.256-3.708,16.4,16.4,0,0,0-1.023,1.471ZM93.491,33.394c1.279-1.087,1.279-1.151.7-2.494a26.937,26.937,0,0,1-2.174-10.23c0-.384-.064-.767-.128-1.471-1.215.959-1.79,1.854-1.6,3.2a29.111,29.111,0,0,0,2.558,9.847,10.343,10.343,0,0,0,.639,1.151Zm-46.42,58.44a46.676,46.676,0,0,0,13.171,9.911,51.241,51.241,0,0,0,9.974,3.9c.9.256,1.343.7,1.279,1.6v.767a179.984,179.984,0,0,1-1.279,28.773,7.709,7.709,0,0,0,1.151,4.284,3.114,3.114,0,0,0,.256-.7,179.138,179.138,0,0,0,1.79-31.522,6.119,6.119,0,0,0-4.156-5.435A49.323,49.323,0,0,1,50.844,92.986l-3.9-3.517c-.831,1.279-.9,1.279.128,2.366Z" transform="translate(-16.592 -7.032)" fill="#fff"/>
      <path id="Path_37191" data-name="Path 37191" d="M49.79,117.637A43.857,43.857,0,0,0,69.1,130.681a1.969,1.969,0,0,0,.639.064A4.092,4.092,0,0,0,67.373,128a41.087,41.087,0,0,1-16.88-12.4c-.192-.256-.448-.575-.767-1.023C48.831,116.486,48.831,116.55,49.79,117.637Zm1.151-8.376c-.128-.256-.384-.384-.639-.7a5.339,5.339,0,0,0,.959,4.6,40.582,40.582,0,0,0,14.194,11.7c.384.192.831.32,1.407.575a3.888,3.888,0,0,0-1.918-2.941,36.177,36.177,0,0,1-14-13.235ZM66.158,102.1a8.153,8.153,0,0,0,.064,1.279c.256,1.471.448,2.941.767,4.348a63.818,63.818,0,0,0,10.678,24.744,50.806,50.806,0,0,0,12.66,12.148,31.509,31.509,0,0,1,13.171,16.5c.128.448.128,1.023.767,1.215.767-2.494.767-2.685-.192-4.8a30.4,30.4,0,0,0-7.033-9.975,61.128,61.128,0,0,0-6.394-4.987,50.768,50.768,0,0,1-13.939-14.9,65.154,65.154,0,0,1-8.44-23.4,2.327,2.327,0,0,0-2.11-2.174Z" transform="translate(-17.584 -36.926)" fill="#fff"/>
      <path id="Path_37192" data-name="Path 37192" d="M62.032,97.9a9.361,9.361,0,0,0,0,1.343c.575,3.389,1.023,6.778,1.79,10.1A64.016,64.016,0,0,0,74.5,133.13,54.418,54.418,0,0,0,88.119,146.3a31.132,31.132,0,0,1,6.138,5.051c4.54,4.987,6.65,11.061,7.609,17.583.064.575.192,1.151.32,1.79.831-2.238,1.471-4.412.639-6.714a10.582,10.582,0,0,1-.384-1.343A29.987,29.987,0,0,0,90.421,145.6c-1.918-1.279-3.772-2.622-5.563-4.092a56.365,56.365,0,0,1-16.5-23.657,69.508,69.508,0,0,1-4.284-17.519A2.352,2.352,0,0,0,62.032,97.9Zm-9.847,96.292A49.419,49.419,0,0,1,68.81,200.2,63.543,63.543,0,0,1,83.388,212.1l1.407,1.407c.512-.384.9-.639,1.407-1.023-9.655-10.934-20.972-18.414-35.678-20.4-.128,1.79-.128,1.854,1.662,2.11Zm-1.215-53.006c.128-.128.256-.128.32-.192A36.816,36.816,0,0,0,56.6,130.509c.384-1.215.256-1.407-1.343-1.982A37.956,37.956,0,0,1,49.5,140.42a3.229,3.229,0,0,0,.831.512A1.349,1.349,0,0,0,50.971,141.187Z" transform="translate(-17.742 -35.412)" fill="#fff"/>
      <path id="Path_37193" data-name="Path 37193" d="M75.76,85.478a62.117,62.117,0,0,1-5.5-15.729A2.2,2.2,0,0,0,68.215,67.7c-.064.128-.128.192-.128.32.128.831.256,1.6.384,2.43A60.53,60.53,0,0,0,78.573,93.6a49.489,49.489,0,0,0,12.852,11.893,33.293,33.293,0,0,1,10.55,11.573c.256.448.575.959,1.023,1.662.7-1.535.767-2.685-.128-3.772-.639-.831-1.151-1.726-1.726-2.558a39.432,39.432,0,0,0-10.422-9.655A46.4,46.4,0,0,1,75.76,85.478Zm28.261-71.036c-.767-.512-1.6-1.087-2.366-1.6A130.712,130.712,0,0,0,87.141,5.171,31.631,31.631,0,0,1,79.085-.2H76.463a31.97,31.97,0,0,0,9.719,6.905,131.445,131.445,0,0,1,15.665,8.376C103,15.913,103.062,15.849,104.021,14.442ZM57.729,96.092c-.512-.32-.959-.512-1.471-.831-.959,2.174-1.726,4.156-2.622,6.074s-2.11,3.772-3.261,5.818c.512.32.959.512,1.471.831a42.993,42.993,0,0,0,5.882-11.893Zm3.453,1.726a1.918,1.918,0,0,0-.448-.32,3.114,3.114,0,0,0-.7-.256c-2.046,4.092-4.092,8.056-6.138,12.148.256.192.7.448,1.023.7,2.046-1.854,5.946-9.527,6.266-12.276ZM56.77,14.186c-.448,1.279-.32,1.407,1.087,1.982.064-.128.192-.256.256-.384.192-.448.32-.831.512-1.279A39.585,39.585,0,0,0,60.606-.136h-1.79c0,.639.064,1.343.064,1.982a40.991,40.991,0,0,1-2.11,12.34ZM62.78,2.294A40.991,40.991,0,0,1,60.095,16.68c-.448,1.151-.32,1.343,1.087,1.854a7.634,7.634,0,0,0,.512-1.023A39.885,39.885,0,0,0,64.443,5.3a51.573,51.573,0,0,0,.064-5.435h-1.79C62.78.631,62.78,1.462,62.78,2.294ZM70.709,53c.064-.32.128-.575.192-.831.192-1.854.32-3.772.639-5.627,2.238-11.893,6.65-22.826,14.642-32.1.959-1.151,1.918-2.238,2.877-3.389a6.516,6.516,0,0,0,.512-.959l-1.535-.767c-2.238,2.685-4.476,5.115-6.394,7.8A70.275,70.275,0,0,0,71.156,39.634,65.543,65.543,0,0,0,69.11,50.759C68.982,52.358,69.11,52.55,70.709,53Zm-3.9-51.535a45.134,45.134,0,0,1-3.2,17.2c-.192.448-.32.959-.512,1.471.512.32.9.512,1.343.767a2.992,2.992,0,0,1,.32-.384,3.427,3.427,0,0,0,.32-.7A42.916,42.916,0,0,0,68.407,5.427a53.819,53.819,0,0,0,.064-5.563h-1.79a6.484,6.484,0,0,1,.128,1.6ZM42.959.12l.256-.256H42c.128.192.32.384.448.575a2.845,2.845,0,0,1,.512-.32Z" transform="translate(-15.037 -0.036)" fill="#fff"/>
      <path id="Path_37194" data-name="Path 37194" d="M80.1,54.811a75.946,75.946,0,0,1,3.325-15.218,93.1,93.1,0,0,1,6.266-14.131c2.494-4.6,6.01-8.44,9.463-12.532-1.407-1.087-1.471-1.087-2.3-.128-1.854,2.174-3.836,4.284-5.435,6.586A70.9,70.9,0,0,0,81.056,41.128c-1.023,3.581-1.662,7.225-2.43,10.934C78.307,53.788,78.5,54.044,80.1,54.811Z" transform="translate(-28.198 -4.471)" fill="#fff"/>
      <path id="Path_37195" data-name="Path 37195" d="M60.856,46.8c.9-3.645,1.6-7.353,2.749-10.934a106.4,106.4,0,0,1,4.028-10.614,71.2,71.2,0,0,1,5.5-9.911c2.046-3.133,4.54-5.946,6.969-9.015a11.247,11.247,0,0,1-1.279-.767,1.771,1.771,0,0,0-.512.32c-2.11,2.622-4.348,5.179-6.33,7.865a69.055,69.055,0,0,0-6.458,11.637,80.839,80.839,0,0,0-5.946,19.118C59.385,45.836,59.577,46.22,60.856,46.8ZM39.436,5.363c6.394,8.312,14.45,14.706,23.4,20.013a4.367,4.367,0,0,0,.831.256,14.628,14.628,0,0,1,.639-1.471c-1.023-.639-1.918-1.215-2.813-1.726A76.827,76.827,0,0,1,40.779,4.084C39.692,2.677,38.733,1.271,37.774-.2H35.6a66.074,66.074,0,0,0,3.836,5.563Z" transform="translate(-12.729 -0.036)" fill="#fff"/>
      <path id="Path_37196" data-name="Path 37196" d="M58.679,29.084a6.235,6.235,0,0,0,.9.384c.192-.575.384-1.023.512-1.407-.192-.192-.256-.32-.384-.448-.512-.32-1.023-.7-1.535-.959A84.369,84.369,0,0,1,37.643,9.711,65.033,65.033,0,0,1,30.61-.2H28.5a64.284,64.284,0,0,0,9.527,13.044A87.782,87.782,0,0,0,58.679,29.084ZM42.95,170.709c0-.32-.064-.575-.064-.9-.512-3.517-1.087-6.969-1.471-10.486a45.787,45.787,0,0,1,.767-14.77A25.793,25.793,0,0,1,48,132.538a23.719,23.719,0,0,1,13.3-7.417c1.471-.32,1.407-.32,1.471-1.982h-.7a12.789,12.789,0,0,0-1.535.256c-10.742,2.494-17.327,9.207-19.949,19.821-2.174,8.7-1.343,17.455.32,26.151C41.16,170.454,41.544,170.709,42.95,170.709ZM184.7,127.614c-.639.064-1.343.128-1.982.256-6.266,1.087-9.335,4.412-10.166,11.061-.192,1.279.448,2.174,1.535,3.069.128-.959.128-1.726.256-2.494a30.168,30.168,0,0,1,.959-4.156,7.673,7.673,0,0,1,4.22-4.6,17.98,17.98,0,0,1,5.755-1.343l1.471-.192c-.575-1.471-.831-1.662-2.046-1.6ZM196.916,156c1.407.9,1.471.9,2.366-.192,1.662-1.982,3.261-4.092,4.859-6.138a29.642,29.642,0,0,0,1.662-2.558c-.448-.384-.9-.7-1.215-1.023-2.685,3.389-5.115,6.65-7.673,9.911Zm77.047,23.338a35.807,35.807,0,0,1-2.685-16.368,40,40,0,0,1,1.471-7.8,28.319,28.319,0,0,0,.575-11.125,39,39,0,0,0-4.412-12.98c-4.6-8.7-10.87-16.049-17.9-22.826a2.3,2.3,0,0,0-.575-.32,4.028,4.028,0,0,0,1.279,3.645c2.11,2.11,4.092,4.284,6.01,6.522a68.555,68.555,0,0,1,10.614,16.049c2.366,5.115,3.836,10.486,3.325,16.177a45.4,45.4,0,0,1-1.087,5.882,37.3,37.3,0,0,0,1.6,23.594.908.908,0,0,1,.128.384h1.982c-.064-.256-.256-.575-.32-.831ZM319.1,156.962a64.251,64.251,0,0,0,4.859-9.591c.511-1.343.511-1.407-.959-2.366-.192.448-.384.831-.575,1.215-.9,1.982-1.726,4.028-2.813,5.946-1.79,3.261-3.772,6.458-5.691,9.655a65.952,65.952,0,0,0-7.737,18.351h1.854a51.223,51.223,0,0,1,4.6-12.084c2.046-3.772,4.284-7.481,6.458-11.125Zm33.952,8.824a57.8,57.8,0,0,1,.959-9.911,39.774,39.774,0,0,0,.639-6.714,23.116,23.116,0,0,0-5.755-14.514c-4.028-4.859-9.143-8.312-14.578-11.317a3.767,3.767,0,0,0-.831-.32,2.342,2.342,0,0,0,1.407,2.749,47.531,47.531,0,0,1,11.7,9.079,23.4,23.4,0,0,1,5.946,11.573,24.809,24.809,0,0,1-.384,9.463,48.938,48.938,0,0,0-.7,14.642,35.046,35.046,0,0,0,2.494,9.719h1.982a39.079,39.079,0,0,1-2.877-14.45Zm-150.832-7.353a55.792,55.792,0,0,0,6.394-8.5l-1.087-1.279c-2.43,3.2-4.668,6.138-6.969,9.143C201.2,158.049,201.711,158.241,202.223,158.433ZM197.3,149.1c-1.407,1.79-2.877,3.453-4.348,5.179,1.6.9,1.662.959,2.558-.192,2.174-2.685,4.284-5.435,6.394-8.184a9.085,9.085,0,0,0,.831-1.407l-1.279-1.087c-1.535,2.11-2.813,3.964-4.156,5.691Zm-91.881,28.964a18.17,18.17,0,0,0,6.33-3.325c-.32-.384-.639-.7-.959-1.087-1.854.9-3.453,1.726-5.051,2.558-.9.384-.9.639-.32,1.854ZM248.067,51.783c.512-.959,1.023-1.918,1.471-2.877A50.883,50.883,0,0,0,253.5,33.24c.064-.831,0-1.726,0-2.558-1.471-.128-1.6,0-1.726,1.215-.128,1.087-.192,2.238-.384,3.325a43.711,43.711,0,0,1-5.5,16.56c-.128.256-.256.512-.448.959,1.79.384,1.918.384,2.622-.959Z" transform="translate(-10.169 -0.036)" fill="#fff"/>
      <path id="Path_37197" data-name="Path 37197" d="M264,180.888c.512,1.854,1.151,3.325,2.813,4.156s3.2,1.982,4.923,2.877a77.5,77.5,0,0,0,25.192,7.8c1.343.192,2.685.32,4.092.448.064-1.662-.064-1.79-1.343-1.982-2.685-.384-5.371-.7-7.992-1.279-9.719-2.046-18.8-5.5-26.79-11.573a5.757,5.757,0,0,1-.9-.448Zm31.2-71.164-.256.256c1.918,2.749,3.517,5.755,5.946,8.056a227.946,227.946,0,0,0,22.251,18.542,22.255,22.255,0,0,1,9.271,14.642,35.079,35.079,0,0,1,.192,5.179c0,1.279.064,1.279,1.6,1.6a3.908,3.908,0,0,0,.192-.831,23.4,23.4,0,0,0-5.627-17.9,36.165,36.165,0,0,0-6.522-5.563,202.516,202.516,0,0,1-26.087-22.954,4.809,4.809,0,0,0-.959-1.023Zm147.124,63.3c-1.982-6.01-5.755-10.678-10.422-14.706a68.121,68.121,0,0,0-14.706-9.335c-.32-.128-.639-.256-1.023-.384.512,2.046.639,2.238,2.11,3.005a62.314,62.314,0,0,1,13.555,9.143,31.925,31.925,0,0,1,6.586,8.056,26.024,26.024,0,0,1,2.749,18.542,43.146,43.146,0,0,0-.7,14.322,33.639,33.639,0,0,0,2.813,9.847h2.046a33.312,33.312,0,0,1-3.325-14.706,69.868,69.868,0,0,1,1.279-10.934,27.456,27.456,0,0,0-.959-12.852ZM360.676,86.77a49.033,49.033,0,0,0-12.916,1.343c-1.535.32-3.069.575-4.8.959,1.215,1.023,2.238,1.6,3.645,1.151.384-.128.831-.128,1.215-.256,4.348-.9,8.7-1.726,13.235-1.407a25.959,25.959,0,0,1,10.678,3.005,24.713,24.713,0,0,1,9.207,8.76c.7,1.151.831,1.151,2.238.575a1.087,1.087,0,0,0-.064-.448,6.992,6.992,0,0,0-.512-.959C377.556,91.5,370.139,87.345,360.676,86.77Z" transform="translate(-95.093 -31.379)" fill="#fff"/>
      <path id="Path_37198" data-name="Path 37198" d="M390.926,70.237a105.2,105.2,0,0,1-14.067,2.11,5.327,5.327,0,0,0-.959.256c1.343.575,2.558,1.535,4.028,1.343q3.261-.384,6.522-.959c4.348-.767,8.7-1.79,13.171-1.662,11.125.256,19.757,4.923,25.512,14.578a12.213,12.213,0,0,0,.9,1.343c.512-.384.9-.7,1.279-1.023a7.282,7.282,0,0,0-.575-1.215,29.776,29.776,0,0,0-16.049-13.619C404.289,69.022,397.639,69.022,390.926,70.237Zm86.574,2.43a12.441,12.441,0,0,0-.512-1.407c-.831-1.535-1.6-3.133-2.494-4.54-5.435-8.248-13.171-13.235-22.7-15.6a33.489,33.489,0,0,0-14.9-.639,40.333,40.333,0,0,0-8.824,3.133A130.441,130.441,0,0,0,409.02,64.994c-1.279.9-2.494,1.79-3.964,2.813,1.407.575,2.43.639,3.453-.192.384-.32.767-.512,1.151-.831a148.337,148.337,0,0,1,18.606-11.253c6.586-3.325,13.491-4.668,20.78-3.2,11.829,2.43,20.908,8.5,26.279,19.565C475.773,73.05,475.837,73.05,477.5,72.667Z" transform="translate(-135.445 -18.107)" fill="#fff"/>
      <path id="Path_37199" data-name="Path 37199" d="M365.824,56.8a27.161,27.161,0,0,0-17.072,2.11l-2.494,1.151a133.371,133.371,0,0,0-17.2,10.358,12.792,12.792,0,0,0-1.023.9c1.471.959,1.535,1.023,2.685.192.639-.448,1.279-.831,1.918-1.279a116.219,116.219,0,0,1,16.88-9.655,24.975,24.975,0,0,1,13.108-2.3c11.317,1.279,20.269,6.266,25.9,16.5.639,1.151.639,1.151,2.238.575A14.086,14.086,0,0,0,390.184,74a29.328,29.328,0,0,0-4.731-6.778C380.146,61.4,373.432,58.2,365.824,56.8ZM147.6,188.064c-.639.256-.7.7-.192,2.046.512-.256,1.023-.575,1.726-.9-.512-.7-.639-1.535-1.535-1.151ZM267.038,89.342a65.647,65.647,0,0,1,17.839,33.952,4.347,4.347,0,0,0,2.238,2.941c.064-.256.128-.448.064-.575-.192-1.151-.32-2.3-.575-3.453-2.941-14.386-10.038-26.471-20.524-36.573-1.151-1.087-2.366-1.151-3.964-1.151.384.384.512.639.767.831,1.407,1.343,2.813,2.622,4.156,4.028Z" transform="translate(-52.925 -20.396)" fill="#fff"/>
      <path id="Path_37200" data-name="Path 37200" d="M314.6,98.932c1.6,1.343,3.2,2.621,4.731,3.964,10.038,8.76,17.519,19.246,21.036,32.225.32,1.279,1.215,1.918,2.621,2.494-.511-1.918-.9-3.581-1.407-5.243-4.22-13.363-12.4-23.913-23.082-32.673a4.911,4.911,0,0,0-3.9-.767Z" transform="translate(-113.339 -35.74)" fill="#fff"/>
      <path id="Path_37201" data-name="Path 37201" d="M283.321,66.525a3.178,3.178,0,0,0-.575-3.325c-.192.32-.32.575-.448.767a63.153,63.153,0,0,0-3.645,12.148,44.807,44.807,0,0,0-.512,14,36.809,36.809,0,0,0,6.905,16.816,53.267,53.267,0,0,1,4.859,7.992c4.6,9.335,5.371,19.182,3.581,29.348a65.857,65.857,0,0,1-4.092,13.811c-.639,1.471-.512,1.662.959,2.366.256-.575.512-1.087.767-1.662a67.462,67.462,0,0,0,4.8-18.67,48.683,48.683,0,0,0-3.005-23.018,56.777,56.777,0,0,0-6.841-11.957c-5.563-7.673-7.225-16.3-6.074-25.576a57.475,57.475,0,0,1,3.325-13.044ZM267.273,192.293c1.471,2.366,2.749,4.412,4.092,6.586.575-.192,1.023-.384,1.662-.639-.831-1.407-1.662-2.622-2.3-3.964s-1.79-1.79-3.453-1.982Zm-17.136-23.657a57.119,57.119,0,0,1-3.645-5.115,65.6,65.6,0,0,1-7.161-18.351c-.128-.575-.256-1.151-.512-2.046-1.087,1.215-1.471,2.3-1.023,3.581.9,2.813,1.662,5.691,2.685,8.5a47.41,47.41,0,0,0,7.417,13.683,27.49,27.49,0,0,1,6.2,19.054,50.25,50.25,0,0,1-2.238,13.747c-.192.767-.32,1.151-.064,1.407h1.535a4.137,4.137,0,0,0,.256-.831,49.872,49.872,0,0,0,2.3-17.072,28.523,28.523,0,0,0-5.755-16.56Z" transform="translate(-85.577 -22.899)" fill="#fff"/>
      <path id="Path_37202" data-name="Path 37202" d="M213.441,148.24c2.622-3.261,5.307-6.458,7.928-9.719.959-1.151.9-1.215-.192-2.622q-.575.639-.959,1.151c-1.535,1.854-3.005,3.772-4.54,5.627a135.549,135.549,0,0,0-15.154,20.972c-4.284,7.545-7.545,15.281-8.76,23.913-.384,2.622-.575,5.179.512,7.673.384.959.639,1.918,1.023,3.2,0-2.813-.192-5.371,0-7.865a56.139,56.139,0,0,1,5.691-20.077,116.48,116.48,0,0,1,14.45-22.251ZM163.76,227.908A85.6,85.6,0,0,1,147.839,210.2a5.96,5.96,0,0,0-.639-.639c-.32,2.558-.32,2.622.959,4.412l2.3,3.069a97.578,97.578,0,0,0,11.893,12.212h2.813a14.279,14.279,0,0,0-1.407-1.343Z" transform="translate(-52.909 -49.115)" fill="#fff"/>
      <path id="Path_37203" data-name="Path 37203" d="M231.492,207.4a4.431,4.431,0,0,0-.448,3.964,58.978,58.978,0,0,0,8.568,14.962,18.8,18.8,0,0,1,4.028,11.317,38.688,38.688,0,0,1-1.023,10.486c-.32,1.407-.192,1.535,1.151,2.11a.882.882,0,0,0,.192-.256,3.663,3.663,0,0,0,.256-.9,39.226,39.226,0,0,0,1.215-11.253,21.03,21.03,0,0,0-4.54-12.916,54.616,54.616,0,0,1-8.824-16.049A8.083,8.083,0,0,0,231.492,207.4Z" transform="translate(-83.109 -74.898)" fill="#fff"/>
      <path id="Path_37204" data-name="Path 37204" d="M222.234,131.633a3.888,3.888,0,0,0-.767,3.645,60.32,60.32,0,0,0,10.1,19.629,22.418,22.418,0,0,1,4.668,12.916,42.717,42.717,0,0,1-1.6,13.939c-.384,1.407-.256,1.6,1.215,2.046l.575-1.726a44.707,44.707,0,0,0,1.662-14.258,24.719,24.719,0,0,0-5.051-14.195c-1.279-1.726-2.558-3.453-3.708-5.243a61.306,61.306,0,0,1-6.458-15.026c-.192-.448-.384-.959-.639-1.726Zm-8.376,31.33c-.128.064-.192.064-.32.128.256,1.535.064,3.069,1.215,4.476,1.279,1.6,2.43,3.325,3.645,4.923a78.713,78.713,0,0,0,12.788,13.3h3.069a56.87,56.87,0,0,1-7.353-6.266,101.879,101.879,0,0,1-12.34-15.409,4.283,4.283,0,0,0-.7-1.151Zm155.5-143.1a34.31,34.31,0,0,0,9.783-2.43c1.279-.512,1.407-.831.831-2.238-1.407.512-2.749,1.087-4.156,1.471-5.5,1.726-11.125,1.79-16.88,1.215a26.215,26.215,0,0,0-6.714,0c-4.412.575-7.865,3.005-10.806,6.2a37.033,37.033,0,0,0-5.819,8.824,80.54,80.54,0,0,0-6.522,20.844,13.981,13.981,0,0,0-.256,1.726c1.662.192,1.662.192,1.982-.959.064-.32.128-.575.192-.9a88.7,88.7,0,0,1,3.964-14.514,44.208,44.208,0,0,1,6.841-12.66c4.284-5.371,9.783-7.864,16.688-6.969a38.76,38.76,0,0,0,10.87.384Zm-122.316,146.1a83,83,0,0,0,28.069,8.184c1.023.128,2.11.192,3.133.256.128-1.6.128-1.662-1.151-1.854-1.982-.32-3.964-.448-5.946-.767a77.353,77.353,0,0,1-26.854-9.4,13.784,13.784,0,0,0-1.279-.575c-.128,1.407.192,2.238,1.279,2.749C245.252,164.945,246.083,165.521,247.042,165.968Zm-2.749,10.1c1.79,2.494,3.389,5.115,5.115,7.609a4.829,4.829,0,0,0,.7.9,4.261,4.261,0,0,0,.767-.384,4.669,4.669,0,0,0,.639-.575,103.779,103.779,0,0,0-7.673-11.317,3.99,3.99,0,0,0,.448,3.772Zm2.174-4.028c2.43,3.708,4.8,7.161,7.161,10.806.448-.192.9-.384,1.726-.7-1.982-3.005-3.772-5.818-5.627-8.5-.7-.959-1.982-1.215-3.261-1.6Zm23.21,7.1c-1.279-.448-2.174-.7-3.2-.064a38.216,38.216,0,0,1-9.207,4.092,31.866,31.866,0,0,0-5.882,2.494h4.348c1.023-.448,2.11-.767,3.133-1.151a35.307,35.307,0,0,0,9.271-4.412,5.613,5.613,0,0,0,1.535-.959ZM201.518,141.8c-.639-1.343-1.279-2.622-1.982-3.964a2.765,2.765,0,0,0-.32.064,7.385,7.385,0,0,0,.639,4.8c5.946,13.491,8.888,27.494,7.161,42.264a3.2,3.2,0,0,1-.128.767h1.854a62.424,62.424,0,0,0,.128-16.56,86.887,86.887,0,0,0-7.353-27.366Zm14.194,43.926c0-.064-.064-.128-.064-.192-.192-.512-.448-.959-.639-1.471a10.321,10.321,0,0,0-.575,1.662Z" transform="translate(-71.677 -5.589)" fill="#fff"/>
      <path id="Path_37205" data-name="Path 37205" d="M193.2,236.752h1.854a57.269,57.269,0,0,0,.512-12.4,83.293,83.293,0,0,0-6.01-26.663,16.543,16.543,0,0,0-.767-1.6c-.512,1.6-.767,2.749-.256,4.092,3.9,10.614,5.946,21.484,5.051,32.8a35.865,35.865,0,0,1-.384,3.772Zm-19.693-14.9a6.222,6.222,0,0,1,.7-.959,60.039,60.039,0,0,0,9.719-15.154,41.707,41.707,0,0,0,3.069-24.3c-1.407-8.44-5.179-15.857-10.294-22.7a6.9,6.9,0,0,0-3.645-2.046,4.259,4.259,0,0,0,.767,1.279,56.862,56.862,0,0,1,7.992,12.852c4.8,10.742,5.371,21.611,1.023,32.609a56.042,56.042,0,0,1-9.655,15.729c-.384.448-.7.959-1.087,1.407.256.32.448.512.575.7s.32.32.831.575Z" transform="translate(-61.953 -56.616)" fill="#fff"/>
      <path id="Path_37206" data-name="Path 37206" d="M119.235,118.407a54.738,54.738,0,0,0-9.207-15.857c-2.941-3.581-5.882-7.1-9.974-9.335-.32-.128-.575-.256-.959-.448a2.083,2.083,0,0,0,.9,1.918c2.046,1.982,4.156,3.964,6.074,6.074a56.42,56.42,0,0,1,10.166,15.09c4.412,9.719,4.923,19.629,1.023,29.668A52.679,52.679,0,0,1,108.3,160.1c-1.023,1.215-.959,1.279.575,2.43.192-.256.32-.575.575-.9a55.762,55.762,0,0,0,9.015-14,39.15,39.15,0,0,0,.767-29.22Zm-4.028,58.888c-1.982-1.726-3.9-3.453-5.818-5.243a64.242,64.242,0,0,1-13.811-18.031c-.128-.192-.256-.384-.512-.7a4.627,4.627,0,0,0,.384,4.476c.831,1.087,1.471,2.366,2.238,3.517a82.668,82.668,0,0,0,15.026,16.3c.959.831,1.918,1.726,2.877,2.558h2.622c-.9-.959-1.918-1.918-3.005-2.877Zm28.9-10.422c-.32-.448-.639-.831-1.215-1.535-.064,1.918.064,3.325,1.151,4.54,2.366,2.622,4.6,5.371,7.033,7.928.767.831,1.6,1.662,2.43,2.43h2.749c-.831-.7-1.6-1.407-2.366-2.174a95.788,95.788,0,0,1-9.783-11.189Zm.384,6.905-.831-.831a3.2,3.2,0,0,0,.9,3.708,24.605,24.605,0,0,1,1.726,1.918c.512.512,1.023,1.087,1.535,1.6h2.622a80,80,0,0,1-5.946-6.394Zm-5.115,6.394h1.854a68.952,68.952,0,0,0,.256-15.409,90.69,90.69,0,0,0-4.923-22.571,73.038,73.038,0,0,0-7.8-16.241c-.32-.512-.7-.959-1.215-1.662-.128,1.854-.064,3.2.767,4.476a41.777,41.777,0,0,1,2.877,5.243c6.394,13.683,9.591,28.005,8.5,43.159C139.632,178.126,139.5,179.149,139.376,180.172Zm78.645-13.747a43.121,43.121,0,0,0-8.5-21.1,59.954,59.954,0,0,0-10.358-10.166,87.025,87.025,0,0,1-16.368-17.2,53.049,53.049,0,0,1-9.207-20.588c-.192-.9-.32-1.79-.512-2.813a2.579,2.579,0,0,0-1.343,3.069,52.879,52.879,0,0,0,5.691,15.345c4.987,8.951,11.829,16.368,19.693,22.954a69.526,69.526,0,0,1,10.422,9.911,41.842,41.842,0,0,1,8.951,23.913,57.111,57.111,0,0,1-.448,10.486h1.854a58.638,58.638,0,0,0,.128-13.811Zm-207.738-56.2c-.064.064-.128.192-.256.256,1.087,1.343,2.238,2.622,3.261,4.028s2.11,2.749,3.133,4.156,1.982,2.877,2.877,4.348,1.79,3.005,2.558,4.54,1.535,3.069,2.3,4.668c1.151-1.535,1.215-1.6.512-3.069a88.064,88.064,0,0,0-10.23-16.113,7.187,7.187,0,0,0-4.156-2.813ZM71.92,2.613C77.994,5.618,84.2,8.5,89.823,12.332c1.087.7,1.151.639,2.174-.7-.831-.575-1.6-1.087-2.366-1.6A138.314,138.314,0,0,0,73.582,1.4C72.559.887,71.6.375,70.641-.2H67.38a25.576,25.576,0,0,0,4.54,2.813ZM400.695,62.588C392,57.6,385.733,50.312,381.321,41.424c-3.517-7.033-5.435-14.514-6.778-22.187A114.721,114.721,0,0,0,370.835,4.02c-.192-.512-.384-.959-.639-1.535-1.343,1.151-1.407,1.215-1.023,2.43a150.291,150.291,0,0,1,4.092,17.647,72.376,72.376,0,0,0,8.76,24.105,49.3,49.3,0,0,0,17.647,17.519q.863.48,1.918.959a4.727,4.727,0,0,0,.192-1.151v-.256c0-.512-.32-.7-1.087-1.151ZM1.4,107.154c2.558,2.813,5.243,5.563,7.737,8.5a67.981,67.981,0,0,1,12.4,20.78,7.775,7.775,0,0,0,.512,1.087,3.9,3.9,0,0,0,.512-3.708c-4.22-10.166-10.806-18.67-18.414-26.535a8.215,8.215,0,0,0-3.453-1.854C.436,106.387,1.012,106.706,1.4,107.154ZM292.254,28.381c-.128-.128-.192-.256-.32-.32A56.471,56.471,0,0,0,274.223,20.2c-1.023-.256-1.662.192-2.174,1.279.384.128.575.256.831.32a59.393,59.393,0,0,1,17.008,7.161C290.911,29.532,291.3,29.468,292.254,28.381ZM88.992,22.051a33.971,33.971,0,0,0-12.4,19.565,2.944,2.944,0,0,0,1.151,3.517c.128-.512.256-.831.32-1.151A30.525,30.525,0,0,1,86.69,26.718c1.854-1.854,3.964-3.517,6.01-5.243a38.864,38.864,0,0,0,9.463-11.189A21.944,21.944,0,0,0,104.913-.2h-1.854a17.9,17.9,0,0,1-.575,4.476,23.83,23.83,0,0,1-4.284,8.76,49.121,49.121,0,0,1-9.207,9.015Zm298.34,132.674a42.782,42.782,0,0,1-9.4-14.067c-.575-1.407-1.151-2.813-1.79-4.412-1.215,1.471-1.279,1.662-.831,2.941a43.793,43.793,0,0,0,5.691,11,74.388,74.388,0,0,0,5.5,6.394,44.592,44.592,0,0,1,5.563,6.905,14.367,14.367,0,0,1,2.11,7.609,22.38,22.38,0,0,1-1.471,7.673,10.233,10.233,0,0,1-.639,1.471h2.046a33,33,0,0,0,1.279-4.284,17.629,17.629,0,0,0-3.581-15.985,43.145,43.145,0,0,0-4.476-5.243Zm-43.99-70.333a97.124,97.124,0,0,1,34.08-2.877,67.923,67.923,0,0,1,21.547,5.627c.831.384,1.662.7,2.621,1.151.32-1.726.32-1.79-.9-2.366a76.2,76.2,0,0,0-11.253-4.092,85.489,85.489,0,0,0-31.2-2.046,116.952,116.952,0,0,0-25.512,5.755c-.512.192-1.023.384-1.79.7a5.388,5.388,0,0,0,4.156.512c2.749-.9,5.5-1.662,8.248-2.366ZM361.372,65.21a20.3,20.3,0,0,0,1.982,7.481c.575,1.215.831,1.279,2.366.831a3.114,3.114,0,0,0-.256-.7,22.43,22.43,0,0,1-2.366-11.7c.128-1.982.128-3.964.064-5.946a20.915,20.915,0,0,0-3.453-10.614,7.316,7.316,0,0,0-5.563-3.325,4.625,4.625,0,0,0,.256.448,9.589,9.589,0,0,0,.831.7,17.027,17.027,0,0,1,5.435,8.5,23.37,23.37,0,0,1,.767,7.609,58.666,58.666,0,0,0-.064,6.714ZM312.267,87.524a180.434,180.434,0,0,1-23.4,3.133,109.171,109.171,0,0,1-28.837-2.174,81.87,81.87,0,0,1-28.9-11.893,9.151,9.151,0,0,0-1.215-.639c.831,1.662,1.279,3.069,2.749,3.836s3.005,1.79,4.54,2.558c12.66,6.522,26.279,9.527,40.41,10.166a139.061,139.061,0,0,0,32.929-2.877A45.6,45.6,0,0,1,326.4,89a41.765,41.765,0,0,1,17.328,6.714c1.215.831,1.279.831,2.685-.32-.767-.575-1.407-1.023-2.11-1.471a42.616,42.616,0,0,0-32.033-6.394ZM1.779,104.149A148.337,148.337,0,0,0,20.7,112.78a51.625,51.625,0,0,1,12.724,6.714c.32.256.7.448,1.087.7.448-.32.831-.639,1.407-1.023a12.937,12.937,0,0,0-1.215-1.023A47.213,47.213,0,0,0,22.5,111.5a153.124,153.124,0,0,1-20.077-9.079c-.512-.256-1.087-.575-1.726-.9-.32,1.79-.32,1.854,1.087,2.622Zm.064-4.54a138.749,138.749,0,0,0,20.269,9.4,56.267,56.267,0,0,1,15.026,8.184c1.087.9,1.343.831,2.3-.32-.064-.064-.064-.192-.128-.256a9.59,9.59,0,0,0-.831-.7,51.394,51.394,0,0,0-14.45-8.184A147.252,147.252,0,0,1,2.162,97.691a16.012,16.012,0,0,0-1.471-.7C.436,98.778.436,98.842,1.843,99.609Zm386.832-9.591a7.305,7.305,0,0,0-4.923-1.662l1.023.831c1.79,1.6,3.645,3.069,5.435,4.731a67.774,67.774,0,0,1,10.422,12.98c.256.448.639.831,1.023,1.471a4.94,4.94,0,0,0,.128-.959v-1.023a4.847,4.847,0,0,0-.959-2.494A73.624,73.624,0,0,0,388.674,90.018ZM29.656,23.713A78.486,78.486,0,0,0,12.84,31.45,51.5,51.5,0,0,0,1.459,41.1,3.549,3.549,0,0,0,.5,43.215v.639a3.549,3.549,0,0,0,.192,1.087,10.1,10.1,0,0,0,.9-1.023,45.569,45.569,0,0,1,12.468-11A76.254,76.254,0,0,1,30.1,25.5c.639-.256,1.343-.512,1.982-.767C31.191,23.394,31,23.33,29.656,23.713ZM47.943,33.24c.831-1.407.831-1.471-.384-2.238-.575-.384-1.151-.7-1.726-1.023a92.808,92.808,0,0,1-16.56-12.6A71.088,71.088,0,0,1,15.909-.2H13.863A70.633,70.633,0,0,0,26.14,16.808,94.558,94.558,0,0,0,47.3,32.92a5.939,5.939,0,0,0,.639.32Z" transform="translate(-0.072 -0.036)" fill="#fff"/>
      <path id="Path_37207" data-name="Path 37207" d="M409.169,137.393c-2.3-1.023-4.54-2.11-6.905-2.941-10.614-3.9-21.611-4.731-32.8-3.836a108.946,108.946,0,0,0-21.675,4.092c-.575.192-1.087.384-1.854.639a3.761,3.761,0,0,0,3.645.831c1.662-.512,3.325-.9,5.051-1.279a92.809,92.809,0,0,1,30.563-2.366,66.772,66.772,0,0,1,23.466,6.65,12.793,12.793,0,0,1,1.343.639c.128-.512.192-.9.256-1.151v-.256C410.256,137.968,409.937,137.776,409.169,137.393ZM50.535,166.8a34.655,34.655,0,0,1,9.079-2.749c1.471-.256,1.535-.32,1.279-1.918a6.571,6.571,0,0,0-1.151.064c-13.235,1.918-24.169,10.358-28.2,24.872A59.381,59.381,0,0,0,30.2,209.58c.128,1.343.32,2.749.512,4.092s.575,1.407,1.918,1.151c-.32-2.749-.639-5.435-.831-8.184A52.392,52.392,0,0,1,33.463,187.2c2.685-9.271,8.184-16.241,17.072-20.4ZM73.681,226.46c-8.7-9.783-18.862-16.56-31.97-18.606-.192,1.662-.064,1.79,1.279,2.046a47.6,47.6,0,0,1,11.061,3.581A56.6,56.6,0,0,1,71.187,226.4a10.188,10.188,0,0,0,.831.831h.7c.32-.256.575-.512.959-.767ZM24,227.227h1.918v-.064C24.7,226.716,24.384,226.652,24,227.227Z" transform="translate(-8.546 -47.091)" fill="#fff"/>
      <path id="Path_37208" data-name="Path 37208" d="M54.619,125.021A29.29,29.29,0,0,1,65.3,120.992c1.535-.256,1.6-.384,1.279-1.854a.486.486,0,0,0-.256-.128h-.448a30.007,30.007,0,0,0-16.688,7.8c-5.051,4.731-7.737,10.678-9.015,17.391-1.535,7.865-1.023,15.665.32,23.466.192,1.151.32,1.215,1.982,1.407a13.751,13.751,0,0,1-.128-1.471c-.32-2.685-.7-5.371-1.023-8.056a49.968,49.968,0,0,1,1.087-16.88c1.79-7.417,5.563-13.491,12.212-17.647Zm36.253-23.913.384-1.151a70.281,70.281,0,0,0,1.407-26.343c-1.918-13.171-8.056-24.105-17.839-33.12-.256-.256-.639-.448-.959-.7-.767,1.407-.767,1.471.128,2.43,1.471,1.471,2.941,2.941,4.348,4.54A52.476,52.476,0,0,1,91.384,79.624a69.195,69.195,0,0,1-1.854,19.5C89.21,100.6,89.338,100.724,90.873,101.107ZM328.407,7.628a25.255,25.255,0,0,0,1.918,12.916c.448.959.7.959,1.918.256-.064-.192-.064-.384-.128-.575A23.318,23.318,0,0,1,330.133,9.8a2.216,2.216,0,0,0-1.726-2.174ZM158.776,3.856a40.793,40.793,0,0,1-3.9,15.921c1.6.575,1.726.512,2.238-.639a6.522,6.522,0,0,0,.575-1.407A41.739,41.739,0,0,0,160.5-.236h-1.854C158.776,1.107,158.776,2.449,158.776,3.856ZM102.638,161.722a130.794,130.794,0,0,1,2.877-21.1c.831-3.836,1.6-7.673,2.494-11.509.32-1.343-.256-2.238-1.215-3.2-.128.512-.256.9-.32,1.279-.7,3.581-1.343,7.161-2.174,10.678a124.4,124.4,0,0,0-3.581,26.535,81.623,81.623,0,0,0,1.151,15.281c0,.128.064.32.064.448h1.918a80.186,80.186,0,0,1-1.215-18.414Zm276.281-.128a79.785,79.785,0,0,0,3.133,18.606h1.918a87.278,87.278,0,0,1-2.3-10.614,64.829,64.829,0,0,1-.831-15.729c.128-1.151.128-2.366.256-3.772a4.324,4.324,0,0,0-2.11,3.581c0,2.622-.128,5.243-.064,7.928Zm10.166-18.542a7.311,7.311,0,0,0-.384.9c-.384,1.535-.831,3.069-1.151,4.6-1.471,7.992-.831,15.985.767,23.849.512,2.622,1.215,5.243,1.918,7.8h1.918a87.953,87.953,0,0,1-3.581-19.565,46.885,46.885,0,0,1,1.215-14,3.58,3.58,0,0,0-.7-3.581ZM224.25,169.778a36.189,36.189,0,0,0-5.5-17.327,43.152,43.152,0,0,0-9.591-10.294,110.339,110.339,0,0,1-13.491-12.724c-6.65-7.609-11.957-16.113-14.834-25.9-.128-.384-.32-.7-.448-1.087-1.343.959-1.407,1.151-1.023,2.43.064.32.192.575.256.9,3.389,10.294,9.271,19.054,16.56,26.982a178.116,178.116,0,0,0,14.514,13.235,32.334,32.334,0,0,1,9.591,13.683c2.494,6.714,2.685,13.555,1.6,20.524h1.854a43.709,43.709,0,0,0,.512-10.422ZM345.095,16.324a2.032,2.032,0,0,0,2.43-.7c-.512-.256-.9-.512-1.343-.7a57.315,57.315,0,0,1-16.56-11.189c-1.343-1.279-2.685-2.622-3.964-4.028h-2.43c.512.575.959,1.151,1.471,1.662a60.889,60.889,0,0,0,18.414,14.067,6.8,6.8,0,0,0,1.982.9Zm-63.555,12.34a14.5,14.5,0,0,0,1.6.384A51.1,51.1,0,0,1,295.67,33.4a1.8,1.8,0,0,0,2.621-.575c-.192-.128-.32-.256-.448-.32a51.075,51.075,0,0,0-14.77-5.307C281.923,26.938,281.8,27.13,281.539,28.664Zm20.652,1.854c-.32-.256-.448-.448-.639-.575a55.142,55.142,0,0,0-16.177-6.394c-1.087-.256-1.279-.064-1.79,1.343a5.627,5.627,0,0,0,.959.32,52.788,52.788,0,0,1,15.281,5.818c.9.575,1.6.384,2.366-.512Zm22.7-26.343a29.012,29.012,0,0,0-.384,10.294,62.191,62.191,0,0,0,1.79,6.778c.384,1.215.639,1.215,1.918.512,0-.128.064-.192.064-.32a1.184,1.184,0,0,0-.128-.448A29.106,29.106,0,0,1,326.3,6.414a2.185,2.185,0,0,0-1.407-2.238ZM77.382,107.5c-.575,8.12-1.087,16.113-1.6,24.041.831-2.238,2.174-4.284,2.366-6.778.32-4.987.512-9.975.831-14.962a2.558,2.558,0,0,0-1.6-2.3Z" transform="translate(-14.038 0)" fill="#fff"/>
      <path id="Path_37209" data-name="Path 37209" d="M114.855,199.718a122.764,122.764,0,0,1,2.494-19.31c1.279-5.946,2.749-11.829,3.581-17.9a7.507,7.507,0,0,0-1.087-5.243c-.128.639-.256,1.023-.32,1.343a150.428,150.428,0,0,1-3.005,16.88,124.042,124.042,0,0,0-3.645,26.982,86.438,86.438,0,0,0,1.151,15.729v.128h1.854A85.678,85.678,0,0,1,114.855,199.718ZM88.9,156.751a174.117,174.117,0,0,1-2.366,20.716c-.32,1.79.192,3.517.32,5.243.128,0,.192.064.32.064.256-.767.575-1.6.767-2.366.256-1.279.512-2.494.639-3.772.7-5.563,1.471-11.125,1.918-16.752.384-5.179.448-10.422.639-15.6.064-1.215-.575-1.918-1.854-2.685v1.854C89.151,147.864,89.087,152.34,88.9,156.751Zm290.859,12.916a35.05,35.05,0,0,0,3.645-.32,34.01,34.01,0,0,0,12.4-4.22c1.279-.7,1.662-1.854,1.918-3.453a33.284,33.284,0,0,1-20.141,6.266c.7,1.662.9,1.79,2.174,1.726ZM85.7,196.905c.256-.639.448-1.151.639-1.662,3.005-8.312,6.01-16.624,9.079-24.936,2.11-5.627,4.348-11.125,6.586-16.688.512-1.343.384-1.6-1.151-1.982-5.946,14.642-11.637,29.412-16.752,44.5A12.292,12.292,0,0,1,85.7,196.905Zm248.659-87.788a2.973,2.973,0,0,0-.064-3.517,9.67,9.67,0,0,0-.575.9c-.9,1.407-1.662,2.813-2.621,4.156-3.2,4.092-7.289,6.65-12.6,6.969a42.278,42.278,0,0,0-5.627.7c-5.307,1.151-9.847,3.9-14,7.289-.192.192-.384.448-.7.831a3.208,3.208,0,0,0,2.877-.256c1.151-.831,2.3-1.726,3.517-2.43a27.1,27.1,0,0,1,12.66-4.22,19.482,19.482,0,0,0,17.136-10.422Zm-9.975,11.957c.064,1.535,0,3.069.064,4.54a4.937,4.937,0,0,0,.128.959c1.471.064,1.535.064,1.662-1.023a20.2,20.2,0,0,0-.192-6.2c-1.662.32-1.726.448-1.662,1.726Zm-7.865.256v5.818c1.407.256,1.535.192,1.662-1.087a23.16,23.16,0,0,0,.128-3.645c-.064-1.151-.256-1.215-1.79-1.087Zm52.174,40.09a86.611,86.611,0,0,0-21.547-12.276c-.192-.064-.448-.128-1.023-.32,1.407,1.6,2.494,2.941,4.22,3.708q4.6,2.11,9.015,4.6a50.92,50.92,0,0,1,14.578,12.021c5.115,6.394,7.673,13.555,6.778,21.8-.192,1.854-.512,3.645-.831,5.435a38.292,38.292,0,0,0-.32,12.085,29.353,29.353,0,0,0,3.2,9.783h2.11a28.849,28.849,0,0,1-3.772-16.049,61.866,61.866,0,0,1,.959-7.609,31.658,31.658,0,0,0-4.22-23.146,39.981,39.981,0,0,0-9.143-10.038Zm-48.21-39.9c-.064,1.79,0,3.517,0,5.435.7.128,1.471.384,1.6-.448a13.14,13.14,0,0,0,0-5.691c-.831-.192-1.535-.256-1.6.7ZM125.469,210.013c-1.087.575-1.087.7-.448,2.238,1.343-.7,2.622-1.343,4.092-2.11-.448-.575-.767-.959-1.151-1.407C127.067,209.181,126.236,209.565,125.469,210.013Zm175.769-43.734c-.448-.192-.9-.32-1.279-.512-.192.192-.32.256-.32.384-.7,2.877-1.471,5.691-2.11,8.632a4.938,4.938,0,0,0,1.023,3.453c.9-3.964,1.79-7.928,2.685-11.957Zm18.8,49.936c-2.494-2.43-4.8-4.987-7.353-7.353a99.108,99.108,0,0,1-13.427-14.45c-.192-.256-.384-.448-.575-.7-.9,1.6-.9,1.854.064,3.069A90.333,90.333,0,0,0,309.933,208.8c3.325,3.069,6.778,6.01,9.527,9.591h1.215a2.046,2.046,0,0,0-.639-2.174Zm-36.893-40.729a66.018,66.018,0,0,0-10.358-6.33c-4.22-2.046-8.568-3.9-12.788-5.946a44.478,44.478,0,0,1-15.026-11.189c-.767-.959-1.535-1.918-2.43-3.069-.384,2.3-.384,2.558.767,3.964a39.743,39.743,0,0,0,7.992,7.353,71.3,71.3,0,0,0,13.811,7.289c6.586,2.877,12.98,6.074,18.542,10.742a3.838,3.838,0,0,0,.9.448A3.394,3.394,0,0,0,283.142,175.485Zm40.537,23.785a21.279,21.279,0,0,0-3.2-8.888,45.133,45.133,0,0,0-6.01-7.545,40.807,40.807,0,0,1-9.271-14.131,2.264,2.264,0,0,0-2.174-1.535c-.064.192-.192.256-.128.32.128.384.192.767.32,1.151a36.791,36.791,0,0,0,5.5,10.23c1.726,2.238,3.645,4.284,5.5,6.394a38.5,38.5,0,0,1,5.179,6.841c1.918,3.453,3.005,7.033,2.366,11.061a14.437,14.437,0,0,1-2.494,6.074,5.442,5.442,0,0,1-.831-.639c-.192-.192-.384-.448-.575-.639,0-.192,0-.32.064-.384.128-.256.192-.448.32-.7a12.443,12.443,0,0,0,.7-10.55,25.94,25.94,0,0,0-5.627-8.888c-4.412-4.668-8.568-9.527-11.125-15.473-.064-.192-.32-.32-.512-.512-.767,1.982-.831,2.366.064,3.9a65.434,65.434,0,0,0,3.581,5.691c1.918,2.494,4.092,4.859,6.2,7.225,2.494,2.877,4.859,5.818,5.882,9.591a10.8,10.8,0,0,1-.384,7.225,7.878,7.878,0,0,1-.9,1.535c-1.215-1.087-2.3-2.046-3.325-3.005s-1.982-1.918-2.941-2.877-1.982-2.046-2.941-3.133-1.918-2.174-2.813-3.261-1.662-2.174-2.494-3.325l-2.43-3.645a5.16,5.16,0,0,0,.7,4.476c4.156,5.946,9.207,10.934,14.514,15.793,2.046,1.918,4.028,3.9,6.074,5.882.256.256.575.512.9.831.767-1.407.767-1.407-.7-3.645.256-.448.575-1.023.9-1.535a15.927,15.927,0,0,0,2.11-9.911Z" transform="translate(-30.219 -38.188)" fill="#fff"/>
      <path id="Path_37210" data-name="Path 37210" d="M444.7,228.591a29.208,29.208,0,0,0-1.918-5.627,32.232,32.232,0,0,0-6.458-9.271c-3.325-3.517-6.586-7.161-8.76-11.573-.448-.959-1.343-1.087-2.494-1.215a12.422,12.422,0,0,0,.639,1.535,36.592,36.592,0,0,0,5.051,7.865c1.79,2.046,3.645,4.028,5.435,6.074,4.476,5.307,7.609,11.125,7.161,18.67C445.214,231.916,445.406,231.468,444.7,228.591ZM428.91,245.023a108.057,108.057,0,0,1-13.363-13.683,3.746,3.746,0,0,1-.512-1.023c-.831,1.535-.7,2.494.128,3.453a112.954,112.954,0,0,0,10.614,10.806A69.245,69.245,0,0,1,431.6,250.2h2.43a48.9,48.9,0,0,0-5.115-5.179Zm-18.223-47.954c.192-.448.384-.831.512-1.215.448-1.343.32-1.535-1.151-1.854-.7,1.471-.639,1.662.639,3.069Zm2.877-1.407c-.448,1.343-.767,2.558-1.151,3.645-.448,1.279.128,2.174.959,3.261.639-2.174,1.151-4.092,1.726-6.074-.448-.256-.831-.448-1.535-.831Z" transform="translate(-147.597 -70.066)" fill="#fff"/>
      <path id="Path_37211" data-name="Path 37211" d="M374.812,159.492a2.167,2.167,0,0,0-.512-.192,5.288,5.288,0,0,0,1.471,3.645c3.453,3.453,6.842,6.905,10.038,10.55a69.617,69.617,0,0,1,11,16.752c3.645,8.056,4.8,16.241,2.3,24.936A30.691,30.691,0,0,0,399.3,232a44.125,44.125,0,0,0,2.11,5.755h2.046a39.735,39.735,0,0,1-1.982-4.8,26.819,26.819,0,0,1-1.407-12.084c.32-2.685.9-5.307,1.471-7.992a32.8,32.8,0,0,0,.512-11.445A44.426,44.426,0,0,0,397,186.41c-5.627-10.486-13.555-18.99-22.187-26.918Zm78.709,47.379a62.194,62.194,0,0,1,7.225,13.491,17.409,17.409,0,0,0,.767,1.6c.575-.448.959-.7,1.407-1.087-.512-1.343-1.023-2.558-1.535-3.772-3.581-7.928-8.248-15.09-14.9-20.716a36.586,36.586,0,0,0-20.333-8.824,58.351,58.351,0,0,1-16.368-3.964,91.158,91.158,0,0,1-19.374-11.125c-.448-.32-.9-.639-1.343-.9l-.192.192c.639.831,1.343,1.6,1.918,2.494a10.87,10.87,0,0,0,3.581,3.261c2.622,1.535,5.243,3.2,7.928,4.668a58.042,58.042,0,0,0,22.251,6.969,36.906,36.906,0,0,1,14,4.092,43.07,43.07,0,0,1,14.962,13.619Z" transform="translate(-134.868 -57.553)" fill="#fff"/>
      <path id="Path_37212" data-name="Path 37212" d="M399.807,167.229c1.918-3.9,4.156-7.609,6.394-11.317a65.935,65.935,0,0,0,5.818-11.637c.448-1.343.384-1.471-1.087-2.238-.192.448-.32.831-.512,1.215-.959,2.174-1.79,4.476-2.877,6.586-1.854,3.389-3.964,6.714-5.882,10.038a70.817,70.817,0,0,0-8.376,20.4h1.854a59.936,59.936,0,0,1,4.668-13.044ZM312.786,144.85a49.405,49.405,0,0,1,5.755-13.683,4.663,4.663,0,0,0-.639-.575,6.978,6.978,0,0,0-.7-.384,4.716,4.716,0,0,1-.384.32,42.839,42.839,0,0,0-5.307,12.148C311.251,143.763,311.507,144.211,312.786,144.85Zm7.673-12.532c-.448.7-.831,1.279-1.215,1.854a50.288,50.288,0,0,0-4.6,11.957,3.267,3.267,0,0,0,1.023,3.645c1.343-5.946,3.005-11.509,6.266-16.56C321.418,132.893,321.034,132.638,320.459,132.318Zm25.32,4.284a131.609,131.609,0,0,0-14.194-6.841A53.11,53.11,0,0,1,314.32,118a6.223,6.223,0,0,0-.959-.7c-.512,1.726-.512,1.918.575,3.005A43.574,43.574,0,0,0,325,128.482c3.964,2.046,8.12,3.9,12.212,5.755,6.33,2.941,12.4,6.266,17.455,11.189a4.7,4.7,0,0,0,.767.575,2.133,2.133,0,0,0-.512-2.813A51.906,51.906,0,0,0,345.779,136.6Zm-22.251-1.726a11.123,11.123,0,0,0-.7,1.151,52,52,0,0,0-5.435,16.56c-.256,1.279.448,2.366,1.215,3.772,1.151-7.673,2.749-14.834,6.841-21.228-.575-.32-1.023-.512-1.6-.767A2.244,2.244,0,0,1,323.528,134.875Zm5.051,11.7c.32-2.749.7-5.5,1.087-8.184.192-1.535.128-1.535-1.535-1.854a12.1,12.1,0,0,0-.32,1.471c-.575,5.115-1.151,10.23-1.6,15.409a75.6,75.6,0,0,0,1.087,19.374,70.723,70.723,0,0,0,1.726,7.481h1.982a83.306,83.306,0,0,1-2.43-33.7Zm28.645,1.087c-.192.064-.32.064-.384.128a5.529,5.529,0,0,0-.448.639,26.292,26.292,0,0,1-8.568,8.824,39.462,39.462,0,0,1-9.463,4.284c-1.215.384-1.279.639-.639,1.918.128,0,.32.064.448,0l.9-.192a38.6,38.6,0,0,0,8.951-3.964,29.137,29.137,0,0,0,8.568-7.737,4.967,4.967,0,0,0,.639-3.9ZM352.3,158.981a38.715,38.715,0,0,1-13.427,6.586c-1.343.384-1.407.575-.7,1.982a5.755,5.755,0,0,0,1.023-.192,42.794,42.794,0,0,0,14.514-7.161,4.558,4.558,0,0,0,2.174-4.22c-.384.256-.639.448-.9.639-.9.831-1.79,1.6-2.685,2.366ZM341.047,171a45.224,45.224,0,0,0,12.852-5.946,2.263,2.263,0,0,0,1.023-2.749c-2.558,1.471-4.987,3.069-7.609,4.284s-5.435,2.174-8.184,3.261C339.768,171.193,339.96,171.321,341.047,171Zm-1.343,2.046c-.192-.128-.384-.256-.7-.448a5.019,5.019,0,0,0,2.046,4.028,28.319,28.319,0,0,0,6.714,3.581h6.969a6.631,6.631,0,0,0-.767-.192,26.816,26.816,0,0,1-14.258-6.969Zm67.264,5.946a4.257,4.257,0,0,1-.384-.767c-.639,1.023-.9,1.471-.831,1.982H407.8a13.679,13.679,0,0,1-.831-1.215ZM306.712,50.028a10.912,10.912,0,0,0-.448-1.151,53.306,53.306,0,0,1-5.5-23.657,17.9,17.9,0,0,0-1.151-6.01A32.211,32.211,0,0,0,293.54,9.171a80.382,80.382,0,0,0-9.4-9.271H281.2q2.973,2.4,5.755,4.987A46.393,46.393,0,0,1,296.29,16.4a18.676,18.676,0,0,1,2.558,7.928c.128,1.854.192,3.772.256,5.691a52.43,52.43,0,0,0,4.859,18.606,2.66,2.66,0,0,0,2.749,1.407Zm77.43,52.814a47.046,47.046,0,0,0-10.23,10.23,5.852,5.852,0,0,0-.575,1.087,5.756,5.756,0,0,0,.7.448,4.367,4.367,0,0,0,.831.256,50.512,50.512,0,0,1,12.66-12.34A3.235,3.235,0,0,0,384.142,102.842Z" transform="translate(-101.295 -0.072)" fill="#fff"/>
      <path id="Path_37213" data-name="Path 37213" d="M371.7,147.2c.128,2.366.448,3.069,1.79,4.348,1.726,1.662,3.453,3.325,5.243,4.923A126.81,126.81,0,0,0,398.3,171.433c8.312,5.051,17.136,8.568,26.918,9.527,10.358,1.023,18.926,5.818,25.959,13.427a63.684,63.684,0,0,1,11.829,18.734c.32.7.639,1.343,1.023,2.174.575-.32.959-.575,1.535-.9-.448-1.151-.9-2.174-1.343-3.2-3.9-8.824-9.143-16.624-16.688-22.826a40.582,40.582,0,0,0-22-9.271,54.7,54.7,0,0,1-20.269-6.01c-3.261-1.726-6.458-3.581-9.527-5.563A129.222,129.222,0,0,1,375.792,151.1C374.385,149.822,373.107,148.543,371.7,147.2Z" transform="translate(-133.93 -53.19)" fill="#fff"/>
      <path id="Path_37214" data-name="Path 37214" d="M427.565,160.634a54.724,54.724,0,0,0-7.033,7.864,12.322,12.322,0,0,0-.831,1.343c.511.32.9.512,1.471.831a53.8,53.8,0,0,1,9.975-10.614A3.37,3.37,0,0,0,427.565,160.634Z" transform="translate(-151.239 -57.736)" fill="#fff"/>
      <path id="Path_37215" data-name="Path 37215" d="M352.345,97.91a11.759,11.759,0,0,0-5.371-2.813c.064.256.064.384.128.448,1.279,1.215,2.494,2.43,3.772,3.581a126.467,126.467,0,0,0,21.931,16.688,56.263,56.263,0,0,0,18.478,7.225c2.238.384,4.54.575,6.841.9,11.317,1.726,20.524,7.289,27.941,15.857A68.857,68.857,0,0,1,437.512,158.4a15.355,15.355,0,0,0,.7,1.471c1.535-.575,1.6-.7,1.087-1.982-3.964-9.335-9.271-17.775-16.944-24.489a45.685,45.685,0,0,0-25.64-11.445,55.807,55.807,0,0,1-11.253-2.3,74.976,74.976,0,0,1-15.985-8.056A129.669,129.669,0,0,1,352.345,97.91ZM315.389,50.787l-.192-.575a49.873,49.873,0,0,1-6.905-25.576,20.673,20.673,0,0,0-1.023-5.882,33.145,33.145,0,0,0-6.586-11.7A75.787,75.787,0,0,0,293.713-.3H290.9c.256.256.575.512.831.767A61.793,61.793,0,0,1,301.9,11.912a25.684,25.684,0,0,1,4.6,14.706,40.78,40.78,0,0,0,1.471,11.061,51.789,51.789,0,0,0,4.8,12.085C313.471,51.107,313.982,51.235,315.389,50.787Zm22.57,1.023a47.5,47.5,0,0,0,2.558-4.668,46.581,46.581,0,0,0,3.581-14,16.715,16.715,0,0,0,0-1.79c-1.6-.064-1.662,0-1.79,1.215-.128.831-.192,1.726-.32,2.558-.9,5.882-2.558,11.573-6.138,16.5a5.563,5.563,0,0,0-.511.9c1.79.512,1.918.512,2.621-.7Zm-4.476-.639a26.516,26.516,0,0,0,1.918-2.749c2.877-4.859,4.092-10.166,4.731-15.729a2.3,2.3,0,0,0-.128-.7c-1.471-.192-1.535-.192-1.726.959-.512,2.43-.9,4.923-1.535,7.353a23.888,23.888,0,0,1-4.859,9.783c-.511.639-1.087,1.215-1.726,1.918C332.2,52.514,332.46,52.45,333.483,51.171ZM343.2,29.687c4.412-.7,8.824-1.215,13.235-1.79,1.343-.192,1.407-.32,1.471-1.854-.32,0-.575-.064-.9-.064-2.877.32-5.818.639-8.7,1.023-3.772.512-7.481,1.279-11.253,1.6A48.21,48.21,0,0,1,315.389,25.6c-.448-.192-.831-.256-1.407-.448-.128,1.726-.128,1.79,1.151,2.3a47.315,47.315,0,0,0,14.195,3.005,56.056,56.056,0,0,0,13.875-.767Z" transform="translate(-104.793)" fill="#fff"/>
      <path id="Path_37216" data-name="Path 37216" d="M323.821,51.691c-.064-.256-.064-.384-.128-.448a1.394,1.394,0,0,0-.32-.512,44.418,44.418,0,0,1-7.8-25.9,14.959,14.959,0,0,0-.192-2.43,30.588,30.588,0,0,0-4.859-12.788,57.756,57.756,0,0,0-7.8-9.719H300.1A58.383,58.383,0,0,1,308.6,10a29.083,29.083,0,0,1,4.923,12.6c.256,2.3.256,4.6.384,6.905a45.742,45.742,0,0,0,7.033,21.036,2.717,2.717,0,0,0,2.877,1.151Zm59.911,64.067c1.471.959,1.471.959,2.366-.128a41.886,41.886,0,0,1,9.335-8.76c.384-.256.7-.575,1.215-.959-.32-.448-.639-.9-1.023-1.407a42.487,42.487,0,0,0-11.893,11.253Zm62.852,50.064c1.151-.7,1.215-1.023.639-2.43-7.609,4.22-14.962,8.888-21.42,15.218l1.215,1.215c.9-.767,1.407-1.279,2.046-1.726,2.941-2.3,5.755-4.731,8.824-6.841,2.813-1.982,5.818-3.645,8.7-5.435Zm-28.453,2.11a6.18,6.18,0,0,0-.192-.7,3.833,3.833,0,0,0-.767,4.668c.32.7.575,1.407.9,2.11a22.29,22.29,0,0,0,4.668,6.2h2.941c-.639-.575-1.279-1.087-1.918-1.662a16.573,16.573,0,0,1-5.627-10.614Zm-90.6-3.836c-.064,1.6.064,1.79,1.343,1.726.767-.064,1.471-.192,2.366-.256-.064-.575-.064-1.087-.128-1.726C329.768,163.968,328.617,164.032,327.53,164.1Zm87.533,9.207a2.62,2.62,0,0,0-.192,3.389,33.775,33.775,0,0,0,2.366,3.517h2.494a23.781,23.781,0,0,1-4.348-6.714c0-.064-.192-.064-.32-.192Zm5.371-14.194c1.471-2.622,2.877-5.307,4.22-7.992.639-1.343.575-1.343-.7-2.622-.192.384-.384.575-.512.9a82.374,82.374,0,0,1-5.946,10.934,86.236,86.236,0,0,0-7.417,14.258,59.1,59.1,0,0,0-1.854,5.691h1.854a49.542,49.542,0,0,1,3.772-9.655c2.046-3.964,4.412-7.673,6.586-11.509Zm27.558-.767c-8.888,4.987-17.519,10.038-24.808,17.328.384.448.7.831,1.087,1.343.512-.448.959-.767,1.343-1.151a68.223,68.223,0,0,1,9.591-7.545c3.772-2.43,7.609-4.731,11.509-7.033a2.666,2.666,0,0,0,1.279-2.941ZM396.52,102.394a1.087,1.087,0,0,0,.064.448,9.623,9.623,0,0,0,.639,1.087,31.075,31.075,0,0,0,6.458,7.1,41.958,41.958,0,0,0,8.824,5.563,13.7,13.7,0,0,1,7.609,9.271,2.558,2.558,0,0,0,2.174,2.11c0-.256.128-.448.064-.639-.831-4.156-2.494-7.928-6.01-10.486a39.007,39.007,0,0,0-4.476-2.622,34.311,34.311,0,0,1-12.98-11.189c-.767-1.087-.959-1.087-2.366-.639Z" transform="translate(-108.11 -0.072)" fill="#fff"/>
      <path id="Path_37217" data-name="Path 37217" d="M457.7,159.579c.32.448.575.831.9,1.215a29.175,29.175,0,0,0,7.353,6.65c2.11,1.343,4.348,2.43,6.522,3.708a16.95,16.95,0,0,1,6.841,7.225,24.579,24.579,0,0,1,2.3,7.928,2.174,2.174,0,0,0,1.726,1.918c.064-.192.192-.32.192-.448v-1.215a28.87,28.87,0,0,0-2.3-8.568,18.542,18.542,0,0,0-7.928-8.5c-.831-.448-1.6-.831-2.43-1.279a33.044,33.044,0,0,1-10.55-8.248C459.49,159,459.171,159,457.7,159.579Z" transform="translate(-164.942 -57.512)" fill="#fff"/>
      <path id="Path_37218" data-name="Path 37218" d="M398.434,107.629a31.452,31.452,0,0,1-8.568-5.882,1.878,1.878,0,0,0-2.622-.192c.448.512.767.9,1.151,1.279a33.04,33.04,0,0,0,9.4,6.522,21.93,21.93,0,0,1,7.353,5.691,25.655,25.655,0,0,1,5.435,14.514l.192,2.877a2.462,2.462,0,0,0,1.662,2.046,39.158,39.158,0,0,0-.384-7.8c-1.407-8.568-5.627-15.154-13.619-19.054Zm-136.574,16.3c-5.563.959-9.911,3.581-12.212,8.951-.575,1.343-.192,2.3.767,3.453.9-3.133,2.174-5.818,4.668-7.737a17.627,17.627,0,0,1,8.632-3.133C263.267,124.381,262.947,123.742,261.86,123.934ZM256.873,2.961a26.5,26.5,0,0,0,7.737,13.683c1.6,1.6,3.261,3.069,4.987,4.54,3.517,3.069,7.161,6.01,10.1,9.591a1.988,1.988,0,0,0,.575.448c1.023-1.279,1.087-1.471.064-2.494-1.982-1.982-3.964-3.964-6.074-5.882-3.133-2.941-6.394-5.755-9.463-8.76a20.275,20.275,0,0,1-5.5-9.463c-.448-1.662-.831-3.261-1.215-4.923h-1.854C256.425.851,256.681,1.938,256.873,2.961ZM303.228,5.9a2.474,2.474,0,0,0,3.005.831,5.9,5.9,0,0,0-.575-.831c-1.918-2.046-3.836-4.156-5.818-6.138h-2.622a60.465,60.465,0,0,1,6.01,6.138Z" transform="translate(-89.819 0)" fill="#fff"/>
      <path id="Path_37219" data-name="Path 37219" d="M286.367,10.03a59.675,59.675,0,0,0,14.322.32,60.1,60.1,0,0,0,15.665-4.028,4.139,4.139,0,0,0,2.238-2.877,64.271,64.271,0,0,1-17.136,4.987,58.185,58.185,0,0,1-17.9-.7A2.861,2.861,0,0,0,286.367,10.03Zm-23.21-5.115c-1.343,3.389-3.708,6.074-6.266,8.76.384.448.7.767,1.151,1.215a24.624,24.624,0,0,0,6.33-8.312C264.755,5.746,264.563,5.427,263.157,4.915ZM259.9,2.038c-.959,3.453-3.2,6.074-5.691,8.632.384.448.7.831,1.087,1.215a4.693,4.693,0,0,0,.831-.639,22.271,22.271,0,0,0,4.923-6.969c.639-1.343.512-1.535-1.151-2.238Zm.9,15.793a30.64,30.64,0,0,0,6.522-8.12c.512-.959.32-1.279-1.087-1.854a33.1,33.1,0,0,1-6.65,8.76,10.869,10.869,0,0,1,1.215,1.215Zm27.3-3.581c.639.064,1.343.064,1.982.128a58.562,58.562,0,0,0,23.466-2.813c1.343-.448,1.535-.767,1.662-2.494A58.735,58.735,0,0,1,286.239,12.2c.448,1.79.511,1.918,1.854,2.046Zm6.969,2.685a12.353,12.353,0,0,0,5.946,1.343A61.381,61.381,0,0,0,312.262,16.1c1.215-.32,1.279-.512,1.279-2.11-3.069.639-6.01,1.471-9.079,1.982S298.323,16.616,295.062,16.936Zm16.368-12.66c1.662-.256,1.918-.448,1.662-1.854-.192-.9-.384-1.726-.575-2.622h-1.79a14.642,14.642,0,0,1,.448,1.79c.064.831.128,1.726.256,2.685Zm3.9-1.535c1.662-.256,1.726-.384,1.535-1.726-.064-.384-.128-.831-.192-1.215h-1.854a21.734,21.734,0,0,1,.512,2.941ZM337.07.056l.831-.192h-5.691c-7.225,3.261-11.637,9.143-13.491,17.264a3.377,3.377,0,0,0-.064.831c1.662.064,1.662.064,2.046-1.151a4.713,4.713,0,0,1,.256-.9C323.323,7.6,328.758,2.294,337.07.056ZM250.752,90.53a3.837,3.837,0,0,0-.512.512c-2.685,3.261-5.435,6.522-8.056,9.847-5.691,7.1-10.806,14.514-14.514,22.826s-5.818,16.88-4.731,26.087c.575,4.668,1.662,9.143,4.987,12.788.064.064.128.192.192.256a6.029,6.029,0,0,0,.639.639,7.033,7.033,0,0,0-.7-2.046,39.751,39.751,0,0,1-3.453-19.565,53.581,53.581,0,0,1,5.5-19.054,107.244,107.244,0,0,1,12.852-19.949c2.685-3.389,5.435-6.65,8.184-9.974.831-1.151.831-1.215-.384-2.366ZM250.177,71.8a28.37,28.37,0,0,0,6.266,16.816,68.336,68.336,0,0,1,5.307,6.905c3.517,5.435,3.9,11.061.448,16.752-.7,1.151-.639,1.215.512,2.3.128-.128.32-.256.448-.384a16.19,16.19,0,0,0,3.133-12.021,21.841,21.841,0,0,0-4.987-10.55c-1.343-1.6-2.685-3.261-3.964-4.859a25.32,25.32,0,0,1-5.307-14.45,37.191,37.191,0,0,1,1.343-11.253,22.443,22.443,0,0,0,.575-8.5c-.192-1.471-.384-1.6-1.982-1.662a3.113,3.113,0,0,0,.064.767,23.248,23.248,0,0,1-.639,9.847A37.2,37.2,0,0,0,250.177,71.8Z" transform="translate(-80.183 -0.036)" fill="#fff"/>
      <path id="Path_37220" data-name="Path 37220" d="M267.637,110.661c1.6,3.069,2.046,6.2.575,9.463-.448,1.023-.064,1.726.7,2.558a11.151,11.151,0,0,0,1.982-5.818c.256-3.836-1.279-7.1-3.581-10.038-1.343-1.726-2.749-3.453-4.156-5.115-5.5-6.841-7.481-14.642-6.522-23.274a71.993,71.993,0,0,1,1.407-7.225,19.911,19.911,0,0,0,.064-8.248,2.569,2.569,0,0,0-2.558-2.3c.064.256,0,.448.064.575a14.751,14.751,0,0,1,.831,8.312c-.32,1.79-.7,3.517-1.087,5.243a34.342,34.342,0,0,0,.9,18.159,32.692,32.692,0,0,0,6.33,11,30.806,30.806,0,0,1,5.051,6.714Zm61.957-75.512c-3.069.384-6.074,1.087-9.079,1.279a45.256,45.256,0,0,1-21.739-3.517c-.448-.192-.9-.32-1.407-.512-.064,1.918-.064,1.918,1.471,2.494a46.931,46.931,0,0,0,25.128,2.941c6.074-.9,12.085-1.982,18.223-2.366,1.087-.064,1.215-.256,1.6-1.854a14.4,14.4,0,0,0-1.662,0c-4.22.575-8.376,1.023-12.532,1.535Zm-71.356,97c-4.731,1.151-8.76,3.389-11.573,7.481-.831,1.215-.831,1.6.256,3.133,2.749-5.307,7.289-7.992,13.044-9.143C259.325,131.953,259.261,131.889,258.238,132.145Z" transform="translate(-88.627 -11.792)" fill="#fff"/>
      <path id="Path_37221" data-name="Path 37221" d="M272.5,65.146c-1.471,7.928.064,15.09,5.243,21.42a62.023,62.023,0,0,1,5.371,7.033c4.6,7.353,4.476,14.77-.512,22-.256.384-.512.767-.831,1.215.32.384.575.767.959,1.279.32-.256.575-.448.767-.639a20.643,20.643,0,0,0,4.6-15.6,23.945,23.945,0,0,0-5.371-12.021c-1.343-1.726-2.749-3.389-4.156-5.115a21.989,21.989,0,0,1-4.8-12.724c-.256-3.645.7-7.1,1.343-10.614a53.264,53.264,0,0,0,.7-7.161c.064-1.407-.192-1.535-1.918-1.918a34.792,34.792,0,0,1-.064,5.179C273.588,60.031,272.948,62.588,272.5,65.146Zm83.313-47.187a10.383,10.383,0,0,0-1.151-.128A138.949,138.949,0,0,0,334.713,20a45.064,45.064,0,0,1-13.747.511,42.7,42.7,0,0,1-14.45-4.476,5.442,5.442,0,0,0-1.087-.384,2.794,2.794,0,0,0,1.854,2.813,43.53,43.53,0,0,0,25.7,3.645c6.841-1.087,13.747-2.238,20.716-2.366,1.151,0,1.662-.575,2.11-1.79ZM444.561,4.787c.192.575.448,1.087.639,1.662,1.535-.7,1.662-.831,1.151-2.11-.639-1.535-1.279-3.069-1.982-4.54h-1.918a43.206,43.206,0,0,1,2.11,4.987Zm3.325-2.622c.192.512.448,1.023.639,1.535,1.535-.831,1.6-.9,1.023-2.3-.192-.575-.448-1.087-.639-1.6h-2.046c.32.831.7,1.6,1.023,2.366ZM320.071,167.832a11.9,11.9,0,0,0-2.174.256c-.192,1.6-.128,1.726,1.023,1.662.831,0,1.6-.128,2.494-.192C321.478,167.9,321.414,167.832,320.071,167.832Zm-32.289-45.2a27.954,27.954,0,0,0,6.905-4.156,3.67,3.67,0,0,0,1.343-3.964,25.173,25.173,0,0,1-10.422,7.033c.9,1.471.959,1.535,2.174,1.087ZM310.161,103c3.708,2.813,7.289,5.755,11.061,8.568,3.453,2.622,5.818,5.818,6.394,10.23.128,1.151.32,1.279,1.854,1.407-.064-.9-.064-1.726-.192-2.558a16.761,16.761,0,0,0-6.586-10.358c-4.156-3.2-8.248-6.394-12.34-9.591-.384-.32-.767-.575-1.343-1.023A3.419,3.419,0,0,0,310.161,103Z" transform="translate(-97.967 -0.036)" fill="#fff"/>
      <path id="Path_37222" data-name="Path 37222" d="M333.811,163.662a16.835,16.835,0,0,1,4.668,11.829c0,1.471.064,1.471,1.6,1.79.064-.256.192-.384.192-.512a6.2,6.2,0,0,0,.064-1.087,18.1,18.1,0,0,0-3.772-11.573,22.768,22.768,0,0,0-4.987-4.923,210.911,210.911,0,0,1-16.752-13.427c-.448-.384-.767-.959-1.6-.959.448,1.471.831,2.813,2.046,3.772,5.115,4.028,10.166,8.056,15.217,12.148a21.038,21.038,0,0,1,3.325,2.941Zm-36.19,14.322c1.215-.639,2.366-1.343,3.581-1.982s1.343-1.662,1.215-2.877c-2.366,1.343-4.6,2.685-6.969,4.028C296.343,178.432,296.471,178.56,297.622,177.984Zm5.307-18.223c-.256.32-.448.448-.512.639a19.565,19.565,0,0,1-9.207,8.824,4.719,4.719,0,0,0-2.11,2.558c.256,0,.448.064.575,0a20.786,20.786,0,0,0,10.87-8.056C303.376,162.511,303.185,161.3,302.929,159.762Zm37.916,34.4c.128-1.471.128-1.6-1.535-2.046-.128.512-.192.9-.256,1.279-.448,4.22-.9,8.44-1.279,12.66a63.018,63.018,0,0,0,.831,16.624,62.018,62.018,0,0,0,2.558,9.719h1.982a62.245,62.245,0,0,1-3.645-23.466c.192-4.859.831-9.783,1.343-14.77ZM324.732,225.3c.064.512.32.767.831.7,1.151-.064,2.3-.128,3.581-.256-.064-1.471-.128-1.662-.831-1.662a21.726,21.726,0,0,0-2.873.191c-.644.065-.771.576-.708,1.024Zm20.908,6.841a8.364,8.364,0,0,0-.959-.32,2.813,2.813,0,0,1,.128.639h1.407a2.59,2.59,0,0,1-.575-.32Z" transform="translate(-104.865 -52.324)" fill="#fff"/>
      <path id="Path_37223" data-name="Path 37223" d="M343.151,149.545a1.036,1.036,0,0,0,.575.32c1.023-1.279,1.023-1.279.064-2.366a44.066,44.066,0,0,0-9.974-7.545,141.373,141.373,0,0,0-13.683-6.586,57.43,57.43,0,0,1-16.56-10.678,6.7,6.7,0,0,0-.7-.512c-.767,1.662-.767,1.79.448,2.813a58.824,58.824,0,0,0,14.131,9.143c2.941,1.343,5.882,2.621,8.824,3.964,6.2,2.941,12.148,6.266,16.88,11.445ZM321.859,138.1a7.732,7.732,0,0,0-.32,1.151c-.256,1.726-.512,3.453-.7,5.179a96.1,96.1,0,0,0-.256,23.082,69.243,69.243,0,0,0,2.749,12.724h2.046a72.609,72.609,0,0,1-3.453-23.082,125.318,125.318,0,0,1,1.407-16.944c.256-1.662.128-1.79-1.471-2.11ZM325.7,18.087a.9.9,0,0,0,.064.575c1.6.064,1.662,0,1.982-1.471a28.133,28.133,0,0,1,4.6-10.934,24.3,24.3,0,0,1,6.65-6.394h-3.133C330.107,4.4,326.974,10.67,325.7,18.087Zm100.64-4.156a2.466,2.466,0,0,0,3.133-.767c-.639-.256-1.215-.512-1.79-.7a55.953,55.953,0,0,1-19.118-12.6H406l1.918,1.918a56.669,56.669,0,0,0,18.414,12.148ZM330.3,1.015C331.642.631,331.961.5,331.9-.2h-1.854a10.383,10.383,0,0,1,.256,1.215Zm104.86,7.928c1.535-.575,1.6-.7,1.215-1.982s-.9-2.622-1.407-3.9C434.52,1.974,433.944.887,433.433-.2h-2.11a36.341,36.341,0,0,1,3.261,7.417ZM287.268,37.652a8.728,8.728,0,0,0,.448-4.412c-.128-.064-.256-.064-.384-.128-.9,1.982-1.854,3.964-2.622,6.01-3.453,8.5-5.563,17.328-4.859,26.6a39.7,39.7,0,0,0,3.517,13.555,65.258,65.258,0,0,0,5.755,9.207c5.882,8.632,7.865,18.159,6.841,28.453A61.088,61.088,0,0,1,292,132.665c-.511,1.407-.511,1.407,1.023,2.3a15.62,15.62,0,0,0,.639-1.535A63.3,63.3,0,0,0,297.818,117a45.8,45.8,0,0,0-2.046-19.5,48.62,48.62,0,0,0-7.161-12.98c-6.138-8.5-7.992-17.967-6.714-28.2a62.66,62.66,0,0,1,5.371-18.67ZM433.433,10.286c-.639-.256-1.279-.448-1.854-.639a49.917,49.917,0,0,1-17.2-9.783H411.63a55.806,55.806,0,0,0,5.179,4.284,50.019,50.019,0,0,0,14,7.161C432.218,11.757,432.474,11.629,433.433,10.286Zm-170.526,8.76c2.11,2.046,4.284,4.092,6.522,6.01,3.517,3.069,7.161,6.138,10.038,9.911.128.128.32.256.512.448.959-1.535,1.023-1.6.064-2.685-1.151-1.279-2.238-2.622-3.517-3.836-3.261-3.005-6.65-5.882-9.974-8.888-4.54-4.092-8.056-8.824-9.719-14.77A55.7,55.7,0,0,1,255.554-.2H253.7q.48,2.494,1.151,4.987a29.482,29.482,0,0,0,8.056,14.258Z" transform="translate(-91.378 -0.036)" fill="#fff"/>
      <path id="Path_37224" data-name="Path 37224" d="M288.212,66.041a44.054,44.054,0,0,0,2.494,11.509,52.661,52.661,0,0,0,7.225,12.788c5.627,7.928,7.481,16.816,6.394,26.343a56.7,56.7,0,0,1-3.261,13.363c-.448,1.279-.448,1.279,1.087,2.238.256-.575.448-1.023.639-1.535a57.409,57.409,0,0,0,3.389-13.811A40.968,40.968,0,0,0,303.237,95.9a51.792,51.792,0,0,0-5.691-9.4,40.556,40.556,0,0,1-7.609-24.041,58.305,58.305,0,0,1,4.668-22.826c1.471-3.645,3.261-7.161,4.987-10.678a4.949,4.949,0,0,0,.128-3.836c-.448.767-.831,1.215-1.087,1.79-1.79,3.645-3.708,7.161-5.243,10.87-3.836,9.079-5.946,18.414-5.179,28.261Zm38.619-60.87c.9,1.215.9,1.215,2.558.448-.384-.512-.639-.959-.9-1.343-1.151-1.535-2.3-3.005-3.581-4.476h-2.43C323.954,1.526,325.424,3.317,326.831,5.171ZM322.419,6c.959,1.087,1.087,1.151,2.558.448-.32-.448-.575-.831-.831-1.215-.639-.831-1.279-1.6-1.918-2.366C321.4,1.846,320.5.887,319.606-.072H316.92C318.775,1.846,320.565,3.956,322.419,6Z" transform="translate(-103.767 -0.036)" fill="#fff"/>
    </g>
  </g>
</svg>
